<?xml version="1.0" encoding="utf-8"?>
<!-- Generator: Adobe Illustrator 27.5.0, SVG Export Plug-In . SVG Version: 6.00 Build 0)  -->
<svg version="1.1" xmlns="http://www.w3.org/2000/svg" xmlns:xlink="http://www.w3.org/1999/xlink" x="0px" y="0px"
	 viewBox="0 0 500 500" style="enable-background:new 0 0 500 500;" xml:space="preserve">
<g id="BACKGROUND">
	<rect style="fill:#F5F0FF;" width="500" height="500"/>
	
		<ellipse transform="matrix(0.2094 -0.9778 0.9778 0.2094 272.9604 495.1112)" style="fill:#FFFFFF;" cx="442.671" cy="78.749" rx="27.994" ry="27.994"/>
	
		<ellipse transform="matrix(0.2288 -0.9735 0.9735 0.2288 294.407 423.7891)" style="opacity:0.5;fill:#FFFFFF;" cx="414.677" cy="26.08" rx="9.628" ry="9.628"/>
	<circle style="opacity:0.5;fill:#FFFFFF;" cx="381.355" cy="61.617" r="17.132"/>
	<circle style="opacity:0.5;fill:#FFFFFF;" cx="32.202" cy="26.08" r="17.132"/>
	<circle style="fill:#FFFFFF;" cx="25.765" cy="465.677" r="14.151"/>
	<path style="opacity:0.5;fill:#FFFFFF;" d="M78.534,20.381c1.992,1.992,1.992,5.221,0,7.213c-1.992,1.992-5.221,1.992-7.213,0
		c-1.992-1.992-1.992-5.221,0-7.213C73.313,18.389,76.543,18.389,78.534,20.381z"/>
	<path style="fill:#FFFFFF;" d="M479.934,12.846c1.992,1.992,1.992,5.221,0,7.213c-1.992,1.992-5.221,1.992-7.213,0
		c-1.992-1.992-1.992-5.221,0-7.213C474.713,10.854,477.942,10.854,479.934,12.846z"/>
	<path style="fill:#FFFFFF;" d="M155.312,37.845c3.667,3.667,3.667,9.613,0,13.281c-3.667,3.667-9.614,3.667-13.281,0
		c-3.667-3.667-3.667-9.614,0-13.281C145.698,34.178,151.645,34.178,155.312,37.845z"/>
	<path style="opacity:0.5;fill:#FFFFFF;" d="M67.913,462.07c1.992,1.992,1.992,5.221,0,7.213c-1.992,1.992-5.221,1.992-7.213,0
		c-1.992-1.992-1.992-5.221,0-7.213C62.692,460.078,65.921,460.078,67.913,462.07z"/>
	<circle style="fill:#FFFFFF;" cx="466.679" cy="476.126" r="5.1"/>
	<path style="fill:#FFFFFF;" d="M39.648,165.251c3.884,3.884,3.884,10.18,0,14.064c-3.884,3.884-10.18,3.884-14.064,0
		c-3.884-3.884-3.884-10.18,0-14.064C29.468,161.368,35.764,161.368,39.648,165.251z"/>
	<path style="opacity:0.5;fill:#FFFFFF;" d="M483.566,351.437c3.983,3.983,3.983,10.442,0,14.425
		c-3.983,3.984-10.442,3.984-14.426,0c-3.983-3.983-3.983-10.442,0-14.425C473.124,347.454,479.582,347.454,483.566,351.437z"/>
	<circle style="fill:#FFFFFF;" cx="470.666" cy="161.794" r="10.2"/>
</g>
<g id="OBJECTS">
	<g style="opacity:0.17;">
		<path style="fill:#5350D9;" d="M35.952,233.808c-11.621-4.475-17.85-8.351-17.377-11.298
			c1.855-11.554,105.831-4.468,232.236,15.828s227.372,46.116,225.517,57.671c-0.498,3.099-8.348,4.855-21.998,5.377
			c-33.941-13.069-113.976-31.253-208.14-46.372C153.685,240.16,73.2,232.383,35.952,233.808z"/>
	</g>
	<circle style="fill:#FFFFFF;" cx="244.116" cy="264.967" r="200.71"/>
	<g>
		<path style="fill:#F4DA53;" d="M375.793,417.998c5.268,25.443,30.165,41.799,55.608,36.531
			c25.443-5.268,41.799-30.165,36.531-55.608c-4.242-20.487-21.212-35.072-40.945-37.23c-10.005-15.377-20.402-33.431-20.402-33.431
			l-8.018,39.324C381.327,377.404,371.553,397.519,375.793,417.998z"/>
		<g>
			
				<rect x="399.356" y="381.809" transform="matrix(-1 -1.224647e-16 1.224647e-16 -1 842.53 819.3669)" style="fill:#D9C3FF;" width="43.819" height="55.749"/>
			<g>
				
					<rect x="396.266" y="376.601" transform="matrix(-1 -1.224647e-16 1.224647e-16 -1 836.1133 808.6499)" style="fill:#FFFFFF;" width="43.582" height="55.447"/>
				
					<rect x="399.597" y="380.004" transform="matrix(-1 -1.224647e-16 1.224647e-16 -1 836.1133 796.9273)" style="fill:#D9C3FF;" width="36.919" height="36.919"/>
			</g>
			<g style="opacity:0.34;">
				<defs>
					<rect id="SVGID_1_" x="399.597" y="380.004" style="opacity:0.34;" width="36.919" height="36.919"/>
				</defs>
				<clipPath id="SVGID_00000070839321007794502880000000086524714995218570_">
					<use xlink:href="#SVGID_1_"  style="overflow:visible;"/>
				</clipPath>
				<g style="clip-path:url(#SVGID_00000070839321007794502880000000086524714995218570_);">
					
						<text transform="matrix(1 0 0 1 402.3744 399.3594)" style="fill:#FFFFFF; font-family:'Montserrat-ExtraBold'; font-size:5.3345px;">watermark</text>
				</g>
				<g style="clip-path:url(#SVGID_00000070839321007794502880000000086524714995218570_);">
					
						<text transform="matrix(1 0 0 1 412.8978 389.8662)" style="fill:#FFFFFF; font-family:'Montserrat-ExtraBold'; font-size:5.3345px;">watermark</text>
				</g>
				<g style="clip-path:url(#SVGID_00000070839321007794502880000000086524714995218570_);">
					
						<text transform="matrix(1 0 0 1 377.8842 389.8652)" style="fill:#FFFFFF; font-family:'Montserrat-ExtraBold'; font-size:5.3345px;">watermark</text>
				</g>
				<g style="clip-path:url(#SVGID_00000070839321007794502880000000086524714995218570_);">
					
						<text transform="matrix(1 0 0 1 412.8978 408.9434)" style="fill:#FFFFFF; font-family:'Montserrat-ExtraBold'; font-size:5.3345px;">watermark</text>
				</g>
				<g style="clip-path:url(#SVGID_00000070839321007794502880000000086524714995218570_);">
					
						<text transform="matrix(1 0 0 1 377.8842 408.9434)" style="fill:#FFFFFF; font-family:'Montserrat-ExtraBold'; font-size:5.3345px;">watermark</text>
				</g>
			</g>
		</g>
	</g>
	<g>
		<g>
			<g>
				<path style="fill:#E860A7;" d="M162.308,387.418c0,0-5.08,40.203,0,58.675c0,0-5.708,4.346-1.129,10.866
					c0,0,143.118-4.89,183.321-9.779c0,0,8.149-2.716,0-12.496l-1.087-52.641L162.308,387.418z"/>
				<path style="fill:#BD9FFF;" d="M275.732,99.522c0,0,12.324-9.679,13.669,1.671c1.345,11.35-13.669,20.095-13.669,20.095V99.522z
					"/>
				<path style="fill:#D9C3FF;" d="M199.907,71.044c0.324-0.783,3.216-21.171,34.838-22.511
					c31.622-1.34,45.289,20.367,46.897,36.446s10.719,69.408-28.138,73.16l1.34,14.739l-19.295,20.635l-31.22-29.552l7.638-16.809
					c0,0-7.504-4.288-13.935-17.151c0,0-14.203-2.144-16.079-15.543c-1.876-13.399,13.667-16.883,18.223-10.451
					C200.175,104.006,193.475,86.587,199.907,71.044z"/>
				<path style="fill:#331864;" d="M232.752,58.984c1.397,1.43,21.092,23.818,45.71,14.187c24.618-9.631,5.591-35.626-8.076-32.142
					c0,0,0.268-15.811-16.883-14.739c0,0-16.347-20.099-41.27-1.876c-24.923,18.223-35.91,32.426-28.674,47.433
					c0,0-19.876,11.265-1.764,36.446c0,0,6.588-12.595,20.791,0s0.536-12.059,2.144-20.367c1.608-8.308,13.131-3.484,13.131-18.223
					S228.844,54.984,232.752,58.984z"/>
				<g>
					<g>
						<path style="fill:#331864;" d="M241.887,95.778c0.259,1.699,0.518,3.397,0.777,5.096c0.081,0.534,0.618,1.121,1.062,1.381
							c0.495,0.29,1.225,0.413,1.781,0.233c0.559-0.181,1.099-0.527,1.381-1.062c0.078-0.184,0.155-0.368,0.233-0.552
							c0.11-0.41,0.11-0.819,0-1.229c-0.259-1.699-0.518-3.397-0.777-5.096c-0.081-0.534-0.618-1.121-1.062-1.381
							c-0.495-0.29-1.225-0.413-1.781-0.233c-0.559,0.181-1.099,0.528-1.381,1.062c-0.078,0.184-0.155,0.368-0.233,0.552
							C241.777,94.959,241.777,95.368,241.887,95.778L241.887,95.778z"/>
					</g>
				</g>
				<g>
					<g>
						<path style="fill:#331864;" d="M265.954,92.84c0.277,1.517,0.553,3.034,0.83,4.551c0.099,0.541,0.604,1.113,1.062,1.381
							c0.495,0.29,1.225,0.413,1.781,0.233c0.559-0.181,1.099-0.528,1.381-1.062c0.078-0.184,0.155-0.368,0.233-0.552
							c0.11-0.41,0.11-0.819,0-1.229c-0.277-1.517-0.553-3.034-0.83-4.551c-0.099-0.541-0.604-1.113-1.062-1.381
							c-0.495-0.29-1.225-0.413-1.781-0.233c-0.559,0.181-1.099,0.528-1.381,1.062c-0.078,0.184-0.155,0.368-0.233,0.552
							C265.844,92.021,265.844,92.43,265.954,92.84L265.954,92.84z"/>
					</g>
				</g>
				<g>
					<g>
						<path style="fill:#331864;" d="M257.017,98.447c-0.016,2.953,0.285,6.647,3.299,8.15c0.679,0.339,1.386,0.459,2.124,0.591
							c0.535,0.096,1.142,0.174,1.474,0.65c0.82,1.175-0.162,2.798-0.733,3.843c-0.714,1.306,1.281,2.473,1.996,1.166
							c0.801-1.465,1.539-3.012,1.263-4.725c-0.258-1.603-1.399-2.724-2.963-3.082c-0.655-0.15-1.375-0.161-1.995-0.44
							c-0.592-0.267-1.042-0.764-1.366-1.314c-0.852-1.446-0.797-3.217-0.789-4.84C259.337,96.96,257.025,96.958,257.017,98.447
							L257.017,98.447z"/>
					</g>
				</g>
				<g>
					<g>
						<path style="fill:#331864;" d="M253.761,123.028c4.453-0.506,8.941-0.532,13.399-0.08c0.622,0.063,1.156-0.576,1.156-1.156
							c0-0.677-0.532-1.092-1.156-1.156c-4.458-0.453-8.947-0.426-13.399,0.08c-0.62,0.07-1.156,0.481-1.156,1.156
							C252.606,122.442,253.137,123.099,253.761,123.028L253.761,123.028z"/>
					</g>
				</g>
				<g>
					<g>
						<path style="fill:#331864;" d="M237.155,87.54c2.321-0.196,4.642-0.392,6.963-0.587c0.623-0.053,1.18-0.222,1.634-0.677
							c0.401-0.401,0.703-1.058,0.677-1.634c-0.052-1.165-1.021-2.42-2.311-2.311c-2.321,0.196-4.642,0.392-6.963,0.587
							c-0.623,0.052-1.18,0.222-1.634,0.677c-0.401,0.401-0.703,1.059-0.677,1.634C234.896,86.394,235.865,87.649,237.155,87.54
							L237.155,87.54z"/>
					</g>
				</g>
				<g>
					<g>
						<path style="fill:#331864;" d="M264.759,84.611c1.787-0.171,3.575-0.341,5.362-0.512c0.626-0.06,1.175-0.218,1.634-0.677
							c0.401-0.401,0.703-1.059,0.677-1.634c-0.027-0.598-0.223-1.218-0.677-1.634c-0.427-0.392-1.033-0.734-1.634-0.677
							c-1.787,0.171-3.575,0.341-5.362,0.512c-0.626,0.06-1.175,0.218-1.634,0.677c-0.401,0.401-0.703,1.058-0.677,1.634
							c0.027,0.598,0.223,1.218,0.677,1.634C263.552,84.326,264.158,84.668,264.759,84.611L264.759,84.611z"/>
					</g>
				</g>
				<g>
					<g>
						<path style="fill:#331864;" d="M187.846,114.077c3.69,0.074,7.28,1.987,9.357,5.048c0.35,0.516,1.017,0.745,1.581,0.415
							c0.512-0.299,0.767-1.062,0.415-1.581c-2.544-3.75-6.813-6.102-11.353-6.193C186.358,111.736,186.359,114.048,187.846,114.077
							L187.846,114.077z"/>
					</g>
				</g>
				<g>
					<g>
						<path style="fill:#331864;" d="M230.497,153.361c4.411,1.645,8.807,3.489,13.383,4.631c4.466,1.114,9.08,1.544,13.675,1.326
							c1.058-0.05,1.064-1.701,0-1.651c-4.611,0.219-9.219-0.218-13.69-1.383c-4.413-1.15-8.663-2.924-12.93-4.515
							C229.939,151.397,229.509,152.992,230.497,153.361L230.497,153.361z"/>
					</g>
				</g>
				<g>
					<g>
						<path style="fill:#331864;" d="M262.58,140.205c0.915,0.192,1.901,0.159,2.771-0.208c0.15-0.036,0.281-0.105,0.393-0.207
							c0.126-0.081,0.225-0.189,0.298-0.324c0.145-0.248,0.206-0.613,0.117-0.89c-0.091-0.28-0.264-0.549-0.531-0.691
							c-0.254-0.134-0.612-0.234-0.89-0.117c-0.298,0.125-0.608,0.21-0.928,0.255c0.102-0.014,0.205-0.028,0.307-0.041
							c-0.32,0.041-0.642,0.041-0.962,0c0.102,0.014,0.205,0.028,0.307,0.041c-0.089-0.013-0.178-0.028-0.266-0.047
							c-0.305-0.064-0.616-0.044-0.891,0.117c-0.24,0.14-0.468,0.415-0.531,0.691c-0.067,0.296-0.053,0.628,0.116,0.89
							C262.047,139.919,262.286,140.144,262.58,140.205L262.58,140.205z"/>
					</g>
				</g>
				<path style="fill:#331864;" d="M198.031,130c0,0,5.628,1.34,10.183,1.608l3.752,15.543
					C211.966,147.152,202.05,143.132,198.031,130z"/>
				<g>
					<polygon style="fill:#6E6EED;" points="412.749,355.457 209.532,416.477 166.68,226.147 375.593,176.003 					"/>
					<polygon style="fill:#5350D9;" points="173.24,230.23 371.356,182.679 406.338,351.636 213.603,409.51 					"/>
					<polygon style="fill:#331864;" points="166.68,226.147 100.887,230.01 141.514,390.949 209.532,416.477 					"/>
					<polygon style="fill:#4444C6;" points="375.593,176.003 166.68,226.147 100.887,230.01 289.452,186.949 					"/>
					<polygon style="fill:#4444C6;" points="369.766,282.485 355.194,206.443 196.079,246.291 226.302,384.084 381.355,335.31 					
						"/>
					<polygon style="fill:#3131A3;" points="370.435,212.089 354.828,214.136 333.198,219.799 338.137,243.651 341.226,245.692 
											"/>
					<path style="fill:#3131A3;" d="M254.077,296.8c0,0-5.815-5.439-2.508-12.115c0,0,2.945-4.647,8.018-5.307l10.224-0.945
						c0,0-11.228,0.501-10.128,11.475s10.617,9.133,10.617,9.133S266.433,300.493,254.077,296.8z"/>
					<path style="fill:#6A6AEF;" d="M267.062,278.602c0,0,7.692-1.467,11.046,7.128c3.354,8.595-5.18,12.633-5.18,12.633
						s-8.644,4.951-12.638-6.036C256.297,281.34,267.062,278.602,267.062,278.602z"/>
					<path style="fill:#3131A3;" d="M311.427,252.885l-8.26,1.71c0,0-13.763,6.496-9.936,24.98
						c3.827,18.484,20.247,17.819,26.73,14.523C326.443,290.804,311.427,252.885,311.427,252.885z"/>
					<polygon style="fill:#6A6AEF;" points="370.435,212.089 375.336,235.759 341.226,245.692 336.439,222.572 					"/>
					<polygon style="fill:#3131A3;" points="386.398,289.189 370.792,291.236 349.162,296.899 354.101,320.751 357.189,322.792 
											"/>
					<polygon style="fill:#6A6AEF;" points="386.398,289.189 391.299,312.859 357.189,322.792 352.402,299.672 					"/>
					
						<ellipse transform="matrix(0.9792 -0.2028 0.2028 0.9792 -48.8948 69.6891)" style="fill:#6A6AEF;" cx="315.694" cy="273.492" rx="16.818" ry="21.044"/>
					<path style="fill:#3131A3;" d="M328.209,271.167c1.464,7.071-1.562,13.675-6.758,14.751s-10.596-3.784-12.06-10.854
						c-1.464-7.071,1.562-13.675,6.758-14.751C321.346,259.237,326.745,264.096,328.209,271.167z"/>
				</g>
				<path style="fill:#D9C3FF;" d="M277.699,298.696c0.174,0.442,14.199-5.211,20.347-11.283
					c6.148-6.073,17.933-20.675,19.726-15.039c1.793,5.636-7.159,14.603-6.398,18.958c0.762,4.355,33.647-10.47,38.596-14.586
					c4.949-4.116,5.298,6.013,0,11.196c-5.298,5.183-8.085,6.976-8.085,6.976s10.984-6.917,13.29-8.71
					c2.306-1.793,7.429,4.531-4.355,12.513l-5.124,4.651c0,0,9.479-2.049,11.272-1.281c1.793,0.769,2.379,4.755-0.091,8.014
					c0,0,5.514,1.977,1.65,6.845c-3.864,4.867-67.617,15.35-67.617,15.35L277.699,298.696z"/>
				<path style="fill:#FF83B9;" d="M236.17,192.7c-0.622,0.813,17.857-28.802,17.857-28.802s-7.18-0.692,33.799-2.643
					c33.897-1.614,54.481,19.484,54.481,19.484l-125.681,22.268L236.17,192.7z"/>
				<path style="fill:#FF83B9;" d="M236.17,192.7l-30.55-31.446c0,0-42.906,3.842-58.275,7.685
					c-15.37,3.842-41.849,63.381-45.836,136.238c-3.422,62.533-1.738,74.835,15.553,79.318
					c17.291,4.483,179.556-49.759,179.556-49.759l-15.803-40.194c0,0-89.319,14.644-112.374,18.329l32.109-105.62l41.811-9.548
					L236.17,192.7z"/>
				<path style="fill:#5350D9;" d="M161.179,456.958c0.162,8.693,0,43.042,0,43.042h190.638l-7.316-52.821L161.179,456.958z"/>
				<path style="fill:#D9C3FF;" d="M321.585,367.066c0,0-8.405-4.864-14.019-12.541c-5.614-7.678-11.889-14.539-16.704-13.603
					s4.589,12.939,2.67,16.217c-1.919,3.278-20.583-1.073-30.875-3.188c-10.291-2.114-16.841,1.628-9.98,5.994
					c6.861,4.366,13.344,4.99,13.344,4.99s-11.688,0-15.479,0.312c-3.791,0.312-10.059,4.366-0.687,6.861
					c9.371,2.495,11.119,2.807,11.119,2.807s-14.534,0.849-12.975,4.323c1.559,3.474,5.934,2.811,5.934,2.811
					s-9.58,2.534-3.391,5.964c6.189,3.43,45.198,6.57,45.198,6.57L321.585,367.066z"/>
				<path style="fill:#FF83B9;" d="M404.988,358.65c0,0-3.532,50.032-55.827,46.619c-41.228-2.691-55.827-8.7-55.827-8.7
					l27.624-29.413C320.959,367.156,366.106,369.2,404.988,358.65z"/>
			</g>
			<g>
				<g>
					<path style="fill:#331864;" d="M168.612,317.251c2.439-5.277,3.566-11.253,4.947-16.867c0.721-2.93,1.419-5.868,2.224-8.777
						c0.85-3.072,1.931-6.08,2.893-9.118c5.123-16.178,9.608-32.551,14.423-48.821c2.598-8.779,5.27-17.54,8.249-26.198
						c0.346-1.007-1.248-1.439-1.592-0.439c-5.407,15.713-9.882,31.735-14.501,47.691c-2.33,8.046-4.672,16.09-7.156,24.091
						c-1.888,6.08-3.896,12.071-5.424,18.254c-0.882,3.569-1.739,7.145-2.691,10.697c-0.779,2.905-1.531,5.914-2.798,8.654
						C166.743,317.376,168.166,318.215,168.612,317.251L168.612,317.251z"/>
				</g>
			</g>
			<g>
				<g>
					<path style="fill:#331864;" d="M279.411,294.013c4.697,12.807,9.394,25.614,14.091,38.421c0.363,0.989,1.959,0.562,1.592-0.439
						c-4.697-12.807-9.394-25.614-14.091-38.421C280.64,292.585,279.044,293.013,279.411,294.013L279.411,294.013z"/>
				</g>
			</g>
			<g>
				<g>
					<path style="fill:#331864;" d="M265.974,298.778c2.712,8.056,4.532,16.37,7.027,24.49c1.205,3.923,2.579,7.799,4.273,11.539
						c0.423,0.935,0.867,1.86,1.334,2.774c0.394,0.771,0.748,1.719,1.335,2.37c0.886,0.983,2.395,0.331,2.045-1.01
						c-0.072-0.276-0.302-0.502-0.576-0.577c-0.052-0.014-0.104-0.028-0.157-0.042c-1.027-0.278-1.465,1.314-0.439,1.592
						c0.052,0.014,0.105,0.028,0.157,0.042c-0.192-0.192-0.384-0.384-0.577-0.576c0.71-0.282,0.864-0.639,0.462-1.073
						c-0.07-0.129-0.141-0.259-0.211-0.388c-0.209-0.388-0.414-0.779-0.614-1.171c-0.4-0.783-0.784-1.575-1.152-2.374
						c-0.767-1.665-1.462-3.361-2.105-5.077c-1.264-3.374-2.326-6.821-3.309-10.286c-1.956-6.895-3.614-13.875-5.902-20.672
						C267.228,297.338,265.633,297.767,265.974,298.778L265.974,298.778z"/>
				</g>
			</g>
			<g>
				<g>
					<path style="fill:#331864;" d="M269.351,305.296c5.131-0.523,10.285-0.75,15.442-0.681c1.063,0.014,1.063-1.637,0-1.651
						c-5.157-0.069-10.311,0.158-15.442,0.681C268.305,303.752,268.294,305.404,269.351,305.296L269.351,305.296z"/>
				</g>
			</g>
			<g>
				<g>
					<path style="fill:#331864;" d="M270.775,315.577c6.008-0.206,12.016-0.413,18.025-0.619c1.059-0.036,1.064-1.687,0-1.651
						c-6.008,0.206-12.017,0.413-18.025,0.619C269.715,313.963,269.711,315.614,270.775,315.577L270.775,315.577z"/>
				</g>
			</g>
			<g>
				<g>
					<path style="fill:#331864;" d="M275.925,327.01c5.656-0.216,11.288-0.843,16.855-1.866c1.043-0.192,0.601-1.783-0.439-1.592
						c-5.423,0.996-10.906,1.596-16.416,1.807C274.866,325.399,274.861,327.05,275.925,327.01L275.925,327.01z"/>
				</g>
			</g>
			<g>
				<g>
					<path style="fill:#331864;" d="M279.647,335.016c4.891-0.442,9.741-1.248,14.508-2.425c1.031-0.255,0.594-1.847-0.439-1.592
						c-4.625,1.142-9.325,1.937-14.07,2.366C278.598,333.46,278.588,335.112,279.647,335.016L279.647,335.016z"/>
				</g>
			</g>
			<g>
				<g>
					<path style="fill:#331864;" d="M203.836,162.507c5.939,4.485,11.665,9.249,17.153,14.275c2.713,2.485,5.368,5.034,7.962,7.644
						c1.201,1.208,2.628,2.41,3.574,3.836c0.816,1.23,0.984,2.755,2.176,3.73c0.816,0.668,1.99-0.494,1.167-1.167
						c-1.182-0.967-1.396-2.774-2.338-3.973c-1.061-1.351-2.364-2.541-3.574-3.756c-2.65-2.661-5.364-5.26-8.139-7.791
						c-5.49-5.008-11.219-9.745-17.148-14.223C203.821,160.441,202.998,161.874,203.836,162.507L203.836,162.507z"/>
				</g>
			</g>
			<g>
				<g>
					<path style="fill:#331864;" d="M236.117,191.286c6.659-8.674,12.188-18.137,18.623-26.972c0.626-0.86-0.805-1.684-1.425-0.833
						c-6.435,8.835-11.964,18.298-18.623,26.972C234.045,191.295,235.478,192.118,236.117,191.286L236.117,191.286z"/>
				</g>
			</g>
			<g>
				<g>
					<path style="fill:#331864;" d="M335.374,298.827c3.37-1.829,6.619-3.874,9.712-6.142c2.825-2.073,5.799-4.258,8.034-6.984
						c1.767-2.157,3.67-5.596,2.377-8.429c-0.573-1.255-1.781-1.986-3.134-2.105c-1.746-0.154-3.307,0.714-4.734,1.612
						c-0.897,0.564-0.07,1.993,0.833,1.426c1.213-0.763,2.639-1.682,4.141-1.335c1.649,0.381,1.794,2.124,1.488,3.518
						c-0.596,2.713-2.582,4.855-4.586,6.657c-4.508,4.053-9.644,7.471-14.963,10.358
						C333.607,297.909,334.439,299.334,335.374,298.827L335.374,298.827z"/>
				</g>
			</g>
			<g>
				<g>
					<path style="fill:#331864;" d="M338.716,307.467c3.223-1.702,6.372-3.539,9.43-5.52c2.841-1.84,5.814-3.728,8.139-6.217
						c1.974-2.113,3.908-5.182,2.47-8.105c-1.179-2.394-4.447-2.795-6.637-1.597c-1.038,0.568-1.973,1.341-2.93,2.031
						c-0.794,0.572-1.775,1.475-2.777,1.624c-1.047,0.156-0.602,1.747,0.439,1.592c0.936-0.139,1.825-0.842,2.577-1.368
						c1.024-0.716,2.005-1.499,3.058-2.171c1.089-0.695,2.672-1.032,3.863-0.371c1.872,1.039,1.301,3.561,0.421,5.049
						c-1.932,3.266-5.424,5.447-8.511,7.489c-3.355,2.218-6.821,4.262-10.377,6.139
						C336.943,306.538,337.776,307.964,338.716,307.467L338.716,307.467z"/>
				</g>
			</g>
			<g>
				<g>
					<path style="fill:#331864;" d="M340.969,313.205c5.643,0.477,11.292-0.502,16.477-2.764c0.971-0.424,0.132-1.847-0.833-1.425
						c-4.915,2.145-10.307,2.989-15.644,2.539C339.91,311.465,339.916,313.116,340.969,313.205L340.969,313.205z"/>
				</g>
			</g>
			<g>
				<g>
					<path style="fill:#331864;" d="M274.749,366.167c-4.432-1.327-8.866-2.649-13.296-3.981c-2.047-0.616-4.102-1.237-6.066-2.087
						c-1.464-0.634-4.846-1.872-4.673-3.866c0.092-1.058-1.56-1.052-1.651,0c-0.172,1.987,1.592,3.243,3.127,4.117
						c2.108,1.2,4.404,2.043,6.708,2.778c5.109,1.629,10.275,3.093,15.412,4.631C275.33,368.064,275.766,366.471,274.749,366.167
						L274.749,366.167z"/>
				</g>
			</g>
			<g>
				<g>
					<path style="fill:#331864;" d="M266.533,374.742c-4.498-0.945-8.951-2.099-13.336-3.476c-1.065-0.334-2.126-0.682-3.182-1.041
						c-0.957-0.326-2.29-0.559-3.053-1.262c-1.908-1.758,3.964-2.706,4.909-2.777c1.053-0.079,1.061-1.731,0-1.651
						c-1.368,0.103-2.714,0.349-4.006,0.82c-0.983,0.358-2.149,0.791-2.695,1.755c-0.504,0.888-0.271,1.98,0.362,2.735
						c0.779,0.928,2.01,1.268,3.112,1.652c5.705,1.988,11.537,3.596,17.45,4.838C267.131,376.551,267.574,374.96,266.533,374.742
						L266.533,374.742z"/>
				</g>
			</g>
			<g>
				<g>
					<path style="fill:#331864;" d="M266.273,381.451c-3.738,0.186-7.53,0.388-11.25-0.141c-1.59-0.226-3.528-0.47-4.939-1.28
						c-1.904-1.093,0.793-2.987,1.926-3.318c1.018-0.297,0.585-1.891-0.439-1.592c-1.717,0.501-3.655,1.918-3.788,3.86
						c-0.151,2.195,2.234,2.904,3.929,3.348c4.745,1.242,9.711,1.014,14.561,0.773C267.331,383.049,267.337,381.398,266.273,381.451
						L266.273,381.451z"/>
				</g>
			</g>
			<g>
				<g>
					<path style="fill:#331864;" d="M287.826,358.889c3.693,0.114,7.387-0.056,11.053-0.509c0.442-0.055,0.825-0.34,0.825-0.825
						c0-0.404-0.38-0.88-0.825-0.825c-3.667,0.453-7.361,0.624-11.053,0.509C286.763,357.206,286.764,358.856,287.826,358.889
						L287.826,358.889z"/>
				</g>
			</g>
			<g>
				<g>
					<path style="fill:#331864;" d="M293.971,397.142c1.607-2.636,4.031-4.548,6.336-6.543c1.136-0.984,2.259-1.993,3.247-3.129
						c1.114-1.281,1.908-2.785,2.986-4.089c2.239-2.707,5.239-4.846,7.773-7.272c2.751-2.634,5.38-5.39,7.896-8.249
						c0.699-0.795-0.464-1.967-1.167-1.167c-2.567,2.917-5.253,5.728-8.065,8.41c-2.579,2.461-5.65,4.633-7.868,7.436
						c-1.042,1.317-1.84,2.792-2.971,4.043c-1.01,1.118-2.144,2.115-3.285,3.096c-2.331,2.004-4.689,3.975-6.307,6.63
						C291.991,397.219,293.419,398.049,293.971,397.142L293.971,397.142z"/>
				</g>
			</g>
			<g>
				<g>
					<path style="fill:#331864;" d="M305.46,400.227c3.636-6.36,7.875-12.316,13.047-17.522c4.612-4.642,9.717-9.007,12.65-14.983
						c0.466-0.95-0.957-1.788-1.425-0.833c-2.994,6.1-8.295,10.454-12.959,15.224c-5.029,5.143-9.175,11.047-12.738,17.28
						C303.507,400.318,304.932,401.15,305.46,400.227L305.46,400.227z"/>
				</g>
			</g>
			<g>
				<g>
					<path style="fill:#331864;" d="M297.343,392.98c2.899,0.865,5.653,2.113,8.221,3.713c0.904,0.564,1.734-0.864,0.833-1.425
						c-2.682-1.672-5.587-2.976-8.615-3.88C296.762,391.084,296.326,392.677,297.343,392.98L297.343,392.98z"/>
				</g>
			</g>
			<g>
				<g>
					<path style="fill:#331864;" d="M303.157,387.415c1.821,1.475,3.803,2.723,5.94,3.686c0.406,0.183,0.888,0.117,1.129-0.296
						c0.207-0.353,0.112-0.945-0.296-1.129c-2-0.902-3.913-2.057-5.605-3.428c-0.346-0.28-0.829-0.338-1.167,0
						C302.867,386.538,302.809,387.133,303.157,387.415L303.157,387.415z"/>
				</g>
			</g>
			<g>
				<g>
					<path style="fill:#331864;" d="M307.346,382.071c1.714,1.614,3.562,3.086,5.515,4.401c0.359,0.242,0.93,0.081,1.129-0.296
						c0.22-0.417,0.087-0.871-0.296-1.129c-1.852-1.247-3.543-2.601-5.181-4.142c-0.324-0.306-0.845-0.322-1.167,0
						C307.038,381.212,307.021,381.764,307.346,382.071L307.346,382.071z"/>
				</g>
			</g>
			<g>
				<g>
					<path style="fill:#331864;" d="M312.58,378.013c2.023,1.375,4.096,2.675,6.215,3.898c0.368,0.212,0.928,0.105,1.129-0.296
						c0.272-0.544,0.205-1.098-0.204-1.549c-0.3-0.33-0.863-0.304-1.167,0c-0.329,0.329-0.3,0.836,0,1.167
						c-0.113-0.13-0.132-0.28-0.054-0.451c0.376-0.099,0.753-0.197,1.129-0.296c-2.118-1.223-4.191-2.523-6.215-3.898
						c-0.369-0.251-0.915-0.07-1.129,0.296C312.045,377.291,312.21,377.762,312.58,378.013L312.58,378.013z"/>
				</g>
			</g>
			<g>
				<g>
					<path style="fill:#331864;" d="M318.891,372.292c1.885,1.542,3.992,2.74,6.286,3.562c0.42,0.151,0.904-0.17,1.015-0.576
						c0.126-0.458-0.155-0.864-0.577-1.015c-1.992-0.714-3.913-1.792-5.557-3.137c-0.345-0.282-0.83-0.337-1.167,0
						C318.6,371.416,318.544,372.008,318.891,372.292L318.891,372.292z"/>
				</g>
			</g>
			<g>
				<g>
					<path style="fill:#331864;" d="M321.89,368.175c2.665,0.154,5.335,0.215,8.004,0.183c1.062-0.013,1.064-1.663,0-1.651
						c-2.67,0.032-5.339-0.029-8.004-0.183C320.829,366.463,320.832,368.114,321.89,368.175L321.89,368.175z"/>
				</g>
			</g>
			<g>
				<g>
					<path style="fill:#331864;" d="M293.154,397.642c5.03,0.697,10,1.738,14.986,2.687c5.004,0.953,10.04,1.665,15.082,2.384
						c5.023,0.715,10.047,1.431,15.07,2.146c4.894,0.697,9.896,1.787,14.857,1.556c2.803-0.131,5.603-0.376,8.401-0.573
						c2.623-0.184,5.425-0.124,7.926-1.021c0.993-0.356,0.565-1.952-0.439-1.592c-2.225,0.798-4.678,0.764-7.013,0.929
						c-2.464,0.173-4.927,0.354-7.391,0.518c-5.13,0.343-10.112-0.585-15.173-1.305c-9.728-1.385-19.528-2.534-29.192-4.317
						c-5.555-1.025-11.077-2.229-16.676-3.005C292.554,395.907,292.104,397.497,293.154,397.642L293.154,397.642z"/>
				</g>
			</g>
			<g>
				<g>
					<path style="fill:#331864;" d="M246.285,490.161c15.475-0.209,30.857-3.006,45.409-8.278c0.991-0.359,0.563-1.955-0.439-1.592
						c-14.421,5.224-29.633,8.012-44.97,8.219C245.224,488.525,245.221,490.176,246.285,490.161L246.285,490.161z"/>
				</g>
			</g>
			<g>
				<g>
					<path style="fill:#331864;" d="M262.597,488.414c-0.502,3.391-1.651,6.629-3.354,9.602c-0.478,0.835,0.811,1.589,1.29,0.754
						c1.763-3.077,2.985-6.448,3.505-9.959c0.059-0.402-0.1-0.798-0.522-0.919C263.164,487.792,262.656,488.015,262.597,488.414
						L262.597,488.414z"/>
				</g>
			</g>
			<g>
				<g>
					<path style="fill:#331864;" d="M161.952,457.578c23.853-1.209,47.69-2.693,71.532-4.103
						c24.016-1.421,48.039-2.772,72.079-3.706c13.44-0.522,26.886-0.912,40.335-1.105c1.061-0.015,1.064-1.666,0-1.651
						c-24.006,0.346-47.998,1.317-71.973,2.547c-23.994,1.231-47.973,2.725-71.956,4.141c-13.336,0.787-26.675,1.55-40.017,2.226
						C160.895,455.981,160.889,457.632,161.952,457.578L161.952,457.578z"/>
				</g>
			</g>
			<g>
				<g>
					<path style="fill:#331864;" d="M162.249,447.131c12.573-0.028,25.146-0.057,37.72-0.085c1.062-0.002,1.064-1.653,0-1.651
						c-12.573,0.028-25.146,0.057-37.72,0.085C161.187,445.482,161.185,447.133,162.249,447.131L162.249,447.131z"/>
				</g>
			</g>
			<g>
				<g>
					<path style="fill:#331864;" d="M339.748,433.774c2.808,0.366,5.378,2.124,6.92,4.47c0.771,1.174,1.314,2.496,1.518,3.89
						c0.184,1.259,0.122,2.97-1.04,3.766c-0.871,0.597-0.046,2.028,0.833,1.425c3.104-2.127,1.958-6.897,0.32-9.589
						c-1.861-3.058-5.002-5.151-8.551-5.613c-0.446-0.058-0.821,0.421-0.825,0.825C338.918,433.442,339.308,433.717,339.748,433.774
						L339.748,433.774z"/>
				</g>
			</g>
			<g>
				<g>
					<path style="fill:#331864;" d="M313.128,436.206c2.681,0,5.362,0,8.043,0c1.062,0,1.064-1.651,0-1.651
						c-2.681,0-5.362,0-8.043,0C312.066,434.555,312.064,436.206,313.128,436.206L313.128,436.206z"/>
				</g>
			</g>
		</g>
		<g>
			<path style="fill:#F4DA53;" d="M447.974,130.956c11.258-28.558-2.766-60.836-31.324-72.094
				c-28.558-11.258-60.836,2.766-72.094,31.324c-9.065,22.995-1.73,48.393,16.378,63.296c-0.062,21.673-0.656,49.76-0.656,49.76
				l32.56-37.193C416.234,167.499,438.912,153.942,447.974,130.956z"/>
			<g>
				
					<text transform="matrix(1 0 0 1 378.1576 127.0674)" style="fill:#4444C6; font-family:'Montserrat-ExtraBold'; font-size:46.4272px;">C</text>
				<g>
					<path style="fill:#4444C6;" d="M395.812,148.42c-20.038,0-36.34-16.302-36.34-36.34c0-20.038,16.302-36.34,36.34-36.34
						s36.34,16.302,36.34,36.34C432.152,132.118,415.849,148.42,395.812,148.42z M395.812,85.341
						c-14.744,0-26.739,11.995-26.739,26.739c0,14.744,11.995,26.739,26.739,26.739c14.744,0,26.739-11.995,26.739-26.739
						C422.551,97.337,410.556,85.341,395.812,85.341z"/>
				</g>
			</g>
		</g>
	</g>
	<g>
		<g>
			<path style="fill:#F4DA53;" d="M137.42,84.141c-7.525-24.869-33.786-38.93-58.656-31.405
				c-24.869,7.525-38.93,33.786-31.405,58.655c6.059,20.025,24.267,33.032,44.114,33.415c11.341,14.419,25.698,33.375,25.698,33.375
				l2.08-41.789C135.543,125.068,143.477,104.158,137.42,84.141z"/>
			<g>
				<rect x="68.312" y="64.57" style="fill:#D9C3FF;" width="46.002" height="58.526"/>
				<g>
					<rect x="71.46" y="67.717" style="fill:#FFFFFF;" width="46.002" height="58.526"/>
					<rect x="78.206" y="83.647" style="fill:#D9C3FF;" width="32.508" height="2.81"/>
					<rect x="78.206" y="90.314" style="fill:#D9C3FF;" width="32.508" height="2.81"/>
					<rect x="78.206" y="96.98" style="fill:#D9C3FF;" width="32.508" height="2.81"/>
					<rect x="78.206" y="103.647" style="fill:#D9C3FF;" width="32.508" height="2.81"/>
					<rect x="78.206" y="110.314" style="fill:#D9C3FF;" width="32.508" height="2.81"/>
					<rect x="78.206" y="116.98" style="fill:#D9C3FF;" width="32.508" height="2.81"/>
				</g>
			</g>
			<g style="opacity:0.54;">
				
					<text transform="matrix(1 0 0 1 105.0825 78.8578)" style="fill:#FF83B9; font-family:'Montserrat-ExtraBold'; font-size:5.3695px;">C</text>
				<g>
					<path style="fill:#FF83B9;" d="M107.124,81.327c-2.318,0-4.203-1.885-4.203-4.203c0-2.317,1.885-4.203,4.203-4.203
						c2.317,0,4.203,1.885,4.203,4.203C111.327,79.442,109.441,81.327,107.124,81.327z M107.124,74.032
						c-1.705,0-3.093,1.387-3.093,3.092c0,1.705,1.387,3.093,3.093,3.093c1.705,0,3.092-1.387,3.092-3.093
						C110.216,75.419,108.829,74.032,107.124,74.032z"/>
				</g>
			</g>
		</g>
		<g>
			<path style="fill:#4444C6;" d="M78.817,120.828v-5.084c0-5.792-4.712-10.505-10.504-10.505c-5.792,0-10.505,4.712-10.505,10.505
				v5.084h-3.245v20.125h27.499v-20.125H78.817z M61.292,115.744c0-3.871,3.15-7.021,7.021-7.021c3.871,0,7.021,3.15,7.021,7.021
				v5.084H61.292V115.744z"/>
			<path style="fill:#F5F0FF;" d="M70.94,130.266c0-1.451-1.176-2.627-2.627-2.627c-1.451,0-2.627,1.176-2.627,2.627
				c0,1.088,0.661,2.021,1.603,2.42v1.565c0,0.604,0.494,1.097,1.097,1.097c0.603,0,1.097-0.494,1.097-1.097v-1.644
				C70.343,132.176,70.94,131.295,70.94,130.266z"/>
		</g>
	</g>
	<g>
		<path style="opacity:0.17;fill:#FFFFFF;" d="M15.096,246.128l3.479-23.618c-1.855,11.555,99.112,37.374,225.517,57.671
			c126.405,20.296,230.38,27.383,232.235,15.828l-3.48,23.618c-1.855,11.554-105.831,4.468-232.235-15.828
			C114.208,283.502,13.24,257.682,15.096,246.128z"/>
		<path style="opacity:0.17;fill:#FFFFFF;" d="M15.096,248.221l3.479-23.618c-1.855,11.554,99.112,37.374,225.517,57.671
			c126.405,20.296,230.38,27.383,232.235,15.828l-3.48,23.618c-1.855,11.555-105.831,4.468-232.235-15.828
			C114.208,285.596,13.24,259.776,15.096,248.221z"/>
	</g>
	<g style="opacity:0.54;">
		
			<text transform="matrix(1 0 0 1 410.2982 384.1396)" style="fill:#FFFFFF; font-family:'Montserrat-ExtraBold'; font-size:2.1076px;">C</text>
		<g>
			<path style="fill:#FFFFFF;" d="M411.1,385.109c-0.91,0-1.65-0.74-1.65-1.65c0-0.91,0.74-1.65,1.65-1.65
				c0.91,0,1.65,0.74,1.65,1.65C412.75,384.368,412.01,385.109,411.1,385.109z M411.1,382.245c-0.669,0-1.214,0.545-1.214,1.214
				c0,0.669,0.545,1.214,1.214,1.214c0.669,0,1.214-0.544,1.214-1.214C412.314,382.79,411.769,382.245,411.1,382.245z"/>
		</g>
	</g>
	<g style="opacity:0.54;">
		
			<text transform="matrix(1 0 0 1 410.2982 392.8379)" style="fill:#FFFFFF; font-family:'Montserrat-ExtraBold'; font-size:2.1076px;">C</text>
		<g>
			<path style="fill:#FFFFFF;" d="M411.1,393.806c-0.91,0-1.65-0.74-1.65-1.65c0-0.91,0.74-1.65,1.65-1.65
				c0.91,0,1.65,0.74,1.65,1.65C412.75,393.066,412.01,393.806,411.1,393.806z M411.1,390.943c-0.669,0-1.214,0.544-1.214,1.214
				s0.545,1.214,1.214,1.214c0.669,0,1.214-0.545,1.214-1.214S411.769,390.943,411.1,390.943z"/>
		</g>
	</g>
	<g style="opacity:0.54;">
		
			<text transform="matrix(1 0 0 1 410.2982 403.5967)" style="fill:#FFFFFF; font-family:'Montserrat-ExtraBold'; font-size:2.1076px;">C</text>
		<g>
			<path style="fill:#FFFFFF;" d="M411.1,404.565c-0.91,0-1.65-0.74-1.65-1.65c0-0.91,0.74-1.65,1.65-1.65
				c0.91,0,1.65,0.74,1.65,1.65C412.75,403.825,412.01,404.565,411.1,404.565z M411.1,401.702c-0.669,0-1.214,0.544-1.214,1.214
				c0,0.669,0.545,1.214,1.214,1.214c0.669,0,1.214-0.544,1.214-1.214C412.314,402.246,411.769,401.702,411.1,401.702z"/>
		</g>
	</g>
	<g style="opacity:0.54;">
		
			<text transform="matrix(1 0 0 1 410.2982 413.3252)" style="fill:#FFFFFF; font-family:'Montserrat-ExtraBold'; font-size:2.1076px;">C</text>
		<g>
			<path style="fill:#FFFFFF;" d="M411.1,414.294c-0.91,0-1.65-0.74-1.65-1.65c0-0.91,0.74-1.65,1.65-1.65
				c0.91,0,1.65,0.74,1.65,1.65C412.75,413.554,412.01,414.294,411.1,414.294z M411.1,411.43c-0.669,0-1.214,0.545-1.214,1.214
				c0,0.669,0.545,1.214,1.214,1.214c0.669,0,1.214-0.544,1.214-1.214C412.314,411.975,411.769,411.43,411.1,411.43z"/>
		</g>
	</g>
	<g style="opacity:0.54;">
		
			<text transform="matrix(1 0 0 1 401.5297 384.1396)" style="fill:#FFFFFF; font-family:'Montserrat-ExtraBold'; font-size:2.1076px;">C</text>
		<g>
			<path style="fill:#FFFFFF;" d="M402.332,385.109c-0.91,0-1.65-0.74-1.65-1.65c0-0.91,0.74-1.65,1.65-1.65
				c0.91,0,1.65,0.74,1.65,1.65C403.981,384.368,403.241,385.109,402.332,385.109z M402.332,382.245
				c-0.669,0-1.214,0.545-1.214,1.214c0,0.669,0.545,1.214,1.214,1.214s1.214-0.544,1.214-1.214
				C403.546,382.79,403.001,382.245,402.332,382.245z"/>
		</g>
	</g>
	<g style="opacity:0.54;">
		
			<text transform="matrix(1 0 0 1 401.5297 392.8379)" style="fill:#FFFFFF; font-family:'Montserrat-ExtraBold'; font-size:2.1076px;">C</text>
		<g>
			<path style="fill:#FFFFFF;" d="M402.332,393.806c-0.91,0-1.65-0.74-1.65-1.65c0-0.91,0.74-1.65,1.65-1.65
				c0.91,0,1.65,0.74,1.65,1.65C403.981,393.066,403.241,393.806,402.332,393.806z M402.332,390.943
				c-0.669,0-1.214,0.544-1.214,1.214s0.545,1.214,1.214,1.214s1.214-0.545,1.214-1.214S403.001,390.943,402.332,390.943z"/>
		</g>
	</g>
	<g style="opacity:0.54;">
		
			<text transform="matrix(1 0 0 1 401.5297 403.5967)" style="fill:#FFFFFF; font-family:'Montserrat-ExtraBold'; font-size:2.1076px;">C</text>
		<g>
			<path style="fill:#FFFFFF;" d="M402.332,404.565c-0.91,0-1.65-0.74-1.65-1.65c0-0.91,0.74-1.65,1.65-1.65
				c0.91,0,1.65,0.74,1.65,1.65C403.981,403.825,403.241,404.565,402.332,404.565z M402.332,401.702
				c-0.669,0-1.214,0.544-1.214,1.214c0,0.669,0.545,1.214,1.214,1.214s1.214-0.544,1.214-1.214
				C403.546,402.246,403.001,401.702,402.332,401.702z"/>
		</g>
	</g>
	<g style="opacity:0.54;">
		
			<text transform="matrix(1 0 0 1 401.5297 413.3252)" style="fill:#FFFFFF; font-family:'Montserrat-ExtraBold'; font-size:2.1076px;">C</text>
		<g>
			<path style="fill:#FFFFFF;" d="M402.332,414.294c-0.91,0-1.65-0.74-1.65-1.65c0-0.91,0.74-1.65,1.65-1.65
				c0.91,0,1.65,0.74,1.65,1.65C403.981,413.554,403.241,414.294,402.332,414.294z M402.332,411.43
				c-0.669,0-1.214,0.545-1.214,1.214c0,0.669,0.545,1.214,1.214,1.214s1.214-0.544,1.214-1.214
				C403.546,411.975,403.001,411.43,402.332,411.43z"/>
		</g>
	</g>
	<g style="opacity:0.54;">
		
			<text transform="matrix(1 0 0 1 421.0394 384.1396)" style="fill:#FFFFFF; font-family:'Montserrat-ExtraBold'; font-size:2.1076px;">C</text>
		<g>
			<path style="fill:#FFFFFF;" d="M421.842,385.109c-0.91,0-1.65-0.74-1.65-1.65c0-0.91,0.74-1.65,1.65-1.65
				c0.91,0,1.65,0.74,1.65,1.65C423.491,384.368,422.751,385.109,421.842,385.109z M421.842,382.245
				c-0.669,0-1.214,0.545-1.214,1.214c0,0.669,0.545,1.214,1.214,1.214c0.669,0,1.214-0.544,1.214-1.214
				C423.055,382.79,422.511,382.245,421.842,382.245z"/>
		</g>
	</g>
	<g style="opacity:0.54;">
		
			<text transform="matrix(1 0 0 1 421.0394 392.8379)" style="fill:#FFFFFF; font-family:'Montserrat-ExtraBold'; font-size:2.1076px;">C</text>
		<g>
			<path style="fill:#FFFFFF;" d="M421.842,393.806c-0.91,0-1.65-0.74-1.65-1.65c0-0.91,0.74-1.65,1.65-1.65
				c0.91,0,1.65,0.74,1.65,1.65C423.491,393.066,422.751,393.806,421.842,393.806z M421.842,390.943
				c-0.669,0-1.214,0.544-1.214,1.214s0.545,1.214,1.214,1.214c0.669,0,1.214-0.545,1.214-1.214S422.511,390.943,421.842,390.943z"
				/>
		</g>
	</g>
	<g style="opacity:0.54;">
		
			<text transform="matrix(1 0 0 1 421.0394 403.5967)" style="fill:#FFFFFF; font-family:'Montserrat-ExtraBold'; font-size:2.1076px;">C</text>
		<g>
			<path style="fill:#FFFFFF;" d="M421.842,404.565c-0.91,0-1.65-0.74-1.65-1.65c0-0.91,0.74-1.65,1.65-1.65
				c0.91,0,1.65,0.74,1.65,1.65C423.491,403.825,422.751,404.565,421.842,404.565z M421.842,401.702
				c-0.669,0-1.214,0.544-1.214,1.214c0,0.669,0.545,1.214,1.214,1.214c0.669,0,1.214-0.544,1.214-1.214
				C423.055,402.246,422.511,401.702,421.842,401.702z"/>
		</g>
	</g>
	<g style="opacity:0.54;">
		
			<text transform="matrix(1 0 0 1 421.0394 413.3252)" style="fill:#FFFFFF; font-family:'Montserrat-ExtraBold'; font-size:2.1076px;">C</text>
		<g>
			<path style="fill:#FFFFFF;" d="M421.842,414.294c-0.91,0-1.65-0.74-1.65-1.65c0-0.91,0.74-1.65,1.65-1.65
				c0.91,0,1.65,0.74,1.65,1.65C423.491,413.554,422.751,414.294,421.842,414.294z M421.842,411.43
				c-0.669,0-1.214,0.545-1.214,1.214c0,0.669,0.545,1.214,1.214,1.214c0.669,0,1.214-0.544,1.214-1.214
				C423.055,411.975,422.511,411.43,421.842,411.43z"/>
		</g>
	</g>
	<g style="opacity:0.54;">
		
			<text transform="matrix(1 0 0 1 431.7816 384.1396)" style="fill:#FFFFFF; font-family:'Montserrat-ExtraBold'; font-size:2.1076px;">C</text>
		<g>
			<path style="fill:#FFFFFF;" d="M432.583,385.109c-0.91,0-1.65-0.74-1.65-1.65c0-0.91,0.74-1.65,1.65-1.65
				c0.91,0,1.65,0.74,1.65,1.65C434.233,384.368,433.493,385.109,432.583,385.109z M432.583,382.245
				c-0.669,0-1.214,0.545-1.214,1.214c0,0.669,0.545,1.214,1.214,1.214c0.669,0,1.214-0.544,1.214-1.214
				C433.797,382.79,433.253,382.245,432.583,382.245z"/>
		</g>
	</g>
	<g style="opacity:0.54;">
		
			<text transform="matrix(1 0 0 1 431.7816 392.8379)" style="fill:#FFFFFF; font-family:'Montserrat-ExtraBold'; font-size:2.1076px;">C</text>
		<g>
			<path style="fill:#FFFFFF;" d="M432.583,393.806c-0.91,0-1.65-0.74-1.65-1.65c0-0.91,0.74-1.65,1.65-1.65
				c0.91,0,1.65,0.74,1.65,1.65C434.233,393.066,433.493,393.806,432.583,393.806z M432.583,390.943
				c-0.669,0-1.214,0.544-1.214,1.214s0.545,1.214,1.214,1.214c0.669,0,1.214-0.545,1.214-1.214S433.253,390.943,432.583,390.943z"
				/>
		</g>
	</g>
	<g style="opacity:0.54;">
		
			<text transform="matrix(1 0 0 1 431.7816 403.5967)" style="fill:#FFFFFF; font-family:'Montserrat-ExtraBold'; font-size:2.1076px;">C</text>
		<g>
			<path style="fill:#FFFFFF;" d="M432.583,404.565c-0.91,0-1.65-0.74-1.65-1.65c0-0.91,0.74-1.65,1.65-1.65
				c0.91,0,1.65,0.74,1.65,1.65C434.233,403.825,433.493,404.565,432.583,404.565z M432.583,401.702
				c-0.669,0-1.214,0.544-1.214,1.214c0,0.669,0.545,1.214,1.214,1.214c0.669,0,1.214-0.544,1.214-1.214
				C433.797,402.246,433.253,401.702,432.583,401.702z"/>
		</g>
	</g>
	<g style="opacity:0.54;">
		
			<text transform="matrix(1 0 0 1 431.7816 413.3252)" style="fill:#FFFFFF; font-family:'Montserrat-ExtraBold'; font-size:2.1076px;">C</text>
		<g>
			<path style="fill:#FFFFFF;" d="M432.583,414.294c-0.91,0-1.65-0.74-1.65-1.65c0-0.91,0.74-1.65,1.65-1.65
				c0.91,0,1.65,0.74,1.65,1.65C434.233,413.554,433.493,414.294,432.583,414.294z M432.583,411.43
				c-0.669,0-1.214,0.545-1.214,1.214c0,0.669,0.545,1.214,1.214,1.214c0.669,0,1.214-0.544,1.214-1.214
				C433.797,411.975,433.253,411.43,432.583,411.43z"/>
		</g>
	</g>
	<path style="fill:#F4DA53;" d="M26.23,394.372c-3.582,25.127,13.884,48.4,39.011,51.982c25.127,3.582,48.4-13.884,51.982-39.011
		c2.884-20.233-7.884-39.254-25.304-47.771c-4.104-17.444-9.009-40.148-9.009-40.148l-19.06,36.155
		C44.755,358.897,29.113,374.148,26.23,394.372z"/>
	<g>
		<rect x="51.758" y="367.545" style="fill:#D9C3FF;" width="43.468" height="55.302"/>
		<g>
			<rect x="54.732" y="370.519" style="fill:#FFFFFF;" width="43.468" height="55.302"/>
			<rect x="61.107" y="385.572" style="fill:#D9C3FF;" width="12.385" height="2.655"/>
			<rect x="61.107" y="391.871" style="fill:#D9C3FF;" width="12.385" height="2.655"/>
			<rect x="61.107" y="398.17" style="fill:#D9C3FF;" width="12.385" height="2.655"/>
			<rect x="61.107" y="404.47" style="fill:#D9C3FF;" width="12.385" height="2.655"/>
			<rect x="61.107" y="410.769" style="fill:#D9C3FF;" width="12.385" height="2.655"/>
			<rect x="61.107" y="417.068" style="fill:#D9C3FF;" width="12.385" height="2.655"/>
			<rect x="80.004" y="385.572" style="fill:#D9C3FF;" width="12.385" height="2.655"/>
			<rect x="80.004" y="391.871" style="fill:#D9C3FF;" width="12.385" height="2.655"/>
			<rect x="80.004" y="398.17" style="fill:#D9C3FF;" width="12.385" height="2.655"/>
			<rect x="80.004" y="404.47" style="fill:#D9C3FF;" width="12.385" height="2.655"/>
			<rect x="80.004" y="410.769" style="fill:#D9C3FF;" width="12.385" height="2.655"/>
			<rect x="80.004" y="417.068" style="fill:#D9C3FF;" width="12.385" height="2.655"/>
		</g>
	</g>
	<g>
		
			<ellipse transform="matrix(0.7071 -0.7071 0.7071 0.7071 -262.946 156.5541)" style="opacity:0.57;fill:#FFFFFF;" cx="57.505" cy="395.681" rx="13.388" ry="13.388"/>
		<path style="opacity:0.54;fill:#FFFFFF;" d="M43.117,399.964l27.775-10.513c0,0-6.758-10.832-18.484-6.151
			C40.683,387.98,43.117,399.964,43.117,399.964z"/>
		<path style="fill:#331864;" d="M57.504,378.258c-9.607,0-17.423,7.816-17.423,17.423c0,3.776,1.212,7.273,3.261,10.13
			l-16.611,16.611c-1.289,1.288-1.289,3.378,0,4.666c0.644,0.645,1.489,0.967,2.333,0.967c0.844,0,1.689-0.322,2.333-0.967
			l16.732-16.732c2.709,1.737,5.925,2.749,9.375,2.749c9.607,0,17.423-7.816,17.423-17.423
			C74.928,386.074,67.112,378.258,57.504,378.258z M57.504,406.505c-5.969,0-10.824-4.855-10.824-10.824
			c0-5.969,4.855-10.824,10.824-10.824s10.824,4.855,10.824,10.824C68.329,401.65,63.473,406.505,57.504,406.505z"/>
	</g>
	<g>
		<path style="fill:#4444C6;" d="M461.879,425.822v-5.273c0-6.007-4.887-10.894-10.894-10.894c-6.007,0-10.894,4.887-10.894,10.894
			v5.273h-3.365v20.871h28.518v-20.871H461.879z M443.704,420.549c0-4.015,3.267-7.281,7.281-7.281c4.015,0,7.281,3.266,7.281,7.281
			v5.273h-14.562V420.549z"/>
		<path style="fill:#F5F0FF;" d="M453.71,435.609c0-1.505-1.22-2.725-2.725-2.725c-1.505,0-2.725,1.22-2.725,2.725
			c0,1.128,0.685,2.096,1.662,2.51v1.623c0,0.626,0.512,1.138,1.138,1.138c0.626,0,1.138-0.512,1.138-1.138v-1.705
			C453.091,437.59,453.71,436.676,453.71,435.609z"/>
	</g>
	<g>
		<path style="fill:#4444C6;" d="M111.781,425.822v-5.273c0-6.007-4.887-10.894-10.894-10.894c-6.007,0-10.894,4.887-10.894,10.894
			v5.273h-3.365v20.871h28.518v-20.871H111.781z M93.606,420.549c0-4.015,3.267-7.281,7.281-7.281c4.015,0,7.281,3.266,7.281,7.281
			v5.273H93.606V420.549z"/>
		<path style="fill:#F5F0FF;" d="M103.612,435.609c0-1.505-1.22-2.725-2.725-2.725s-2.725,1.22-2.725,2.725
			c0,1.128,0.685,2.096,1.662,2.51v1.623c0,0.626,0.512,1.138,1.138,1.138c0.626,0,1.138-0.512,1.138-1.138v-1.705
			C102.993,437.59,103.612,436.676,103.612,435.609z"/>
	</g>
</g>
</svg>
