<?xml version="1.0" encoding="utf-8"?>
<!-- Generator: Adobe Illustrator 27.5.0, SVG Export Plug-In . SVG Version: 6.00 Build 0)  -->
<svg version="1.1" xmlns="http://www.w3.org/2000/svg" xmlns:xlink="http://www.w3.org/1999/xlink" x="0px" y="0px"
	 viewBox="0 0 500 500" style="enable-background:new 0 0 500 500;" xml:space="preserve">
<g id="Background_Complete">
	<g>
		<rect x="416.779" y="398.494" style="fill:#EBEBEB;" width="33.122" height="0.25"/>
		<rect x="322.527" y="401.208" style="fill:#EBEBEB;" width="8.693" height="0.25"/>
		<rect x="396.586" y="389.208" style="fill:#EBEBEB;" width="19.192" height="0.25"/>
		<rect x="52.459" y="390.888" style="fill:#EBEBEB;" width="43.193" height="0.25"/>
		<rect x="104.556" y="390.888" style="fill:#EBEBEB;" width="6.333" height="0.25"/>
		<rect x="131.471" y="395.111" style="fill:#EBEBEB;" width="93.676" height="0.25"/>
		<path style="fill:#EBEBEB;" d="M237.014,337.8H43.915c-3.147,0-5.708-2.561-5.708-5.708V60.66c0-3.147,2.561-5.708,5.708-5.708
			h193.099c3.146,0,5.707,2.561,5.707,5.708v271.432C242.721,335.239,240.16,337.8,237.014,337.8z M43.915,55.203
			c-3.01,0-5.458,2.448-5.458,5.458v271.432c0,3.01,2.448,5.458,5.458,5.458h193.099c3.009,0,5.457-2.448,5.457-5.458V60.66
			c0-3.009-2.448-5.458-5.457-5.458H43.915z"/>
		<path style="fill:#EBEBEB;" d="M453.31,337.8H260.212c-3.147,0-5.707-2.561-5.707-5.708V60.66c0-3.147,2.561-5.708,5.707-5.708
			H453.31c3.148,0,5.708,2.561,5.708,5.708v271.432C459.019,335.239,456.458,337.8,453.31,337.8z M260.212,55.203
			c-3.009,0-5.457,2.448-5.457,5.458v271.432c0,3.01,2.448,5.458,5.457,5.458H453.31c3.01,0,5.458-2.448,5.458-5.458V60.66
			c0-3.009-2.448-5.458-5.458-5.458H260.212z"/>
		<rect y="382.398" style="fill:#EBEBEB;" width="500" height="0.25"/>
	</g>
	<g>
		<g>
			<path style="fill:#F0F0F0;" d="M114.642,103.568c-12.278,0-22.231,9.953-22.231,22.23c0,12.278,9.953,22.23,22.231,22.23
				s22.23-9.953,22.23-22.23C136.873,113.521,126.92,103.568,114.642,103.568z M127.55,141.57v-4.504
				c0-7.129-5.779-7.908-12.908-7.908c-7.129,0-12.908,0.779-12.908,7.908v4.504c-4.562-3.738-7.475-9.413-7.475-15.771
				c0-11.257,9.126-20.383,20.383-20.383s20.383,9.126,20.383,20.383C135.025,132.156,132.112,137.832,127.55,141.57z"/>
			<ellipse style="fill:#F0F0F0;" cx="114.642" cy="120.873" rx="5.701" ry="6.701"/>
		</g>
		<g>
			<path style="fill:#F0F0F0;" d="M96.486,171.518c-9.703,0-17.569,7.866-17.569,17.569c0,9.703,7.866,17.569,17.569,17.569
				s17.569-7.866,17.569-17.569C114.055,179.384,106.189,171.518,96.486,171.518z M106.688,201.551v-3.559
				c0-5.634-4.568-6.25-10.202-6.25c-5.634,0-10.202,0.616-10.202,6.25v3.559c-3.605-2.954-5.908-7.44-5.908-12.465
				c0-8.897,7.212-16.109,16.109-16.109c8.897,0,16.109,7.212,16.109,16.109C112.595,194.112,110.293,198.597,106.688,201.551z"/>
			<path style="fill:#F0F0F0;" d="M96.486,179.898c-2.925,0-4.506,2.371-4.506,5.296c0,2.925,1.581,5.296,4.506,5.296
				c2.925,0,4.506-2.371,4.506-5.296C100.992,182.269,99.411,179.898,96.486,179.898z"/>
		</g>
		<g>
			<path style="fill:#F0F0F0;" d="M169.9,69.894c-7.669,0-13.885,6.217-13.885,13.886c0,7.669,6.217,13.885,13.885,13.885
				c7.669,0,13.886-6.217,13.886-13.885C183.786,76.111,177.569,69.894,169.9,69.894z M177.963,93.631v-2.813
				c0-4.453-3.61-4.94-8.063-4.94c-4.453,0-8.063,0.487-8.063,4.94v2.813c-2.849-2.335-4.669-5.88-4.669-9.851
				c0-7.031,5.7-12.732,12.732-12.732c7.031,0,12.732,5.7,12.732,12.732C182.632,87.751,180.812,91.296,177.963,93.631z"/>
			<path style="fill:#F0F0F0;" d="M169.9,76.518c-2.312,0-3.561,1.874-3.561,4.186c0,2.312,1.249,4.186,3.561,4.186
				c2.312,0,3.561-1.874,3.561-4.186C173.461,78.391,172.212,76.518,169.9,76.518z"/>
		</g>
		<g>
			<path style="fill:#F0F0F0;" d="M403.305,177.412c-7.669,0-13.885,6.217-13.885,13.885c0,7.669,6.217,13.885,13.885,13.885
				c7.669,0,13.885-6.217,13.885-13.885C417.19,183.629,410.974,177.412,403.305,177.412z M411.367,201.148v-2.813
				c0-4.453-3.61-4.939-8.063-4.939c-4.453,0-8.063,0.487-8.063,4.939v2.813c-2.849-2.335-4.669-5.88-4.669-9.851
				c0-7.032,5.7-12.732,12.732-12.732c7.032,0,12.732,5.7,12.732,12.732C416.036,195.269,414.217,198.814,411.367,201.148z"/>
			<path style="fill:#F0F0F0;" d="M403.305,184.035c-2.312,0-3.561,1.874-3.561,4.186c0,2.312,1.249,4.186,3.561,4.186
				c2.312,0,3.561-1.874,3.561-4.186C406.866,185.909,405.616,184.035,403.305,184.035z"/>
		</g>
		<g>
			<path style="fill:#F0F0F0;" d="M346.668,72.333c-9.893,0-17.914,8.02-17.914,17.914s8.02,17.914,17.914,17.914
				c9.894,0,17.914-8.02,17.914-17.914S356.562,72.333,346.668,72.333z M357.07,102.956v-3.629c0-5.745-4.657-6.373-10.402-6.373
				c-5.745,0-10.402,0.628-10.402,6.373v3.629c-3.676-3.012-6.023-7.586-6.023-12.709c0-9.071,7.354-16.425,16.425-16.425
				c9.072,0,16.425,7.354,16.425,16.425C363.093,95.37,360.746,99.944,357.07,102.956z"/>
			<path style="fill:#F0F0F0;" d="M346.668,80.878c-2.982,0-4.594,2.418-4.594,5.4s1.612,5.4,4.594,5.4
				c2.982,0,4.594-2.418,4.594-5.4S349.65,80.878,346.668,80.878z"/>
		</g>
		<g>
			<path style="fill:#F0F0F0;" d="M384.199,111.488c-13.26,0-24.009,10.749-24.009,24.009c0,13.26,10.749,24.009,24.009,24.009
				c13.26,0,24.009-10.749,24.009-24.009C408.208,122.238,397.459,111.488,384.199,111.488z M398.14,152.531v-4.864
				c0-7.699-6.242-8.541-13.941-8.541c-7.699,0-13.941,0.842-13.941,8.541v4.864c-4.927-4.037-8.073-10.167-8.073-17.033
				c0-12.158,9.856-22.014,22.014-22.014c12.158,0,22.014,9.856,22.014,22.014C406.213,142.364,403.067,148.493,398.14,152.531z"/>
			<path style="fill:#F0F0F0;" d="M384.199,122.941c-3.997,0-6.157,3.24-6.157,7.237c0,3.997,2.16,7.237,6.157,7.237
				s6.157-3.24,6.157-7.237C390.356,126.181,388.196,122.941,384.199,122.941z"/>
		</g>
		<g>
			<g>
				<rect x="94.313" y="237.468" style="fill:#E0E0E0;" width="1.2" height="25.404"/>
			</g>
			<path style="fill:#E0E0E0;" d="M94.913,240.118L94.913,240.118c-0.824,0-1.491-0.667-1.491-1.491v-5.119
				c0-0.824,0.668-1.491,1.491-1.491l0,0c0.823,0,1.491,0.668,1.491,1.491v5.119C96.404,239.451,95.736,240.118,94.913,240.118z"/>
			<path style="fill:#E0E0E0;" d="M80.277,242.032L80.277,242.032c-0.582,0.582-1.526,0.582-2.109,0l-3.62-3.62
				c-0.582-0.582-0.582-1.526,0-2.109l0,0c0.582-0.582,1.526-0.582,2.109,0l3.62,3.62C80.859,240.506,80.859,241.45,80.277,242.032z
				"/>
			<g>
				<path style="fill:#E0E0E0;" d="M90.365,262.871h-1.2v-6.563c0-2.928-1.14-5.68-3.21-7.75l-8.966-8.966l0.849-0.849l8.966,8.966
					c2.297,2.297,3.562,5.351,3.562,8.599V262.871z"/>
			</g>
			<path style="fill:#E0E0E0;" d="M109.178,242.032L109.178,242.032c0.582,0.582,1.526,0.582,2.109,0l3.62-3.62
				c0.582-0.582,0.582-1.526,0-2.109l0,0c-0.582-0.582-1.526-0.582-2.109,0l-3.62,3.62
				C108.596,240.506,108.596,241.45,109.178,242.032z"/>
			<g>
				<path style="fill:#E0E0E0;" d="M100.291,262.871h-1.2v-6.563c0-3.248,1.265-6.302,3.562-8.599l8.966-8.966l0.849,0.849
					l-8.966,8.966c-2.07,2.07-3.21,4.823-3.21,7.75V262.871z"/>
			</g>
			<polygon style="fill:#E0E0E0;" points="120.717,283.64 69.109,283.64 65.508,261.012 124.317,261.012 			"/>
			<rect x="65.508" y="257.07" style="fill:#F0F0F0;" width="58.809" height="3.941"/>
			<rect x="83.482" y="266.022" style="fill:#F0F0F0;" width="22.861" height="113.759"/>
			<rect x="72.41" y="376.625" style="fill:#EBEBEB;" width="45.007" height="6.4"/>
		</g>
		<g>
			<g>
				<rect x="402.704" y="237.468" style="fill:#E0E0E0;" width="1.2" height="25.404"/>
			</g>
			<path style="fill:#E0E0E0;" d="M403.305,240.118L403.305,240.118c-0.824,0-1.491-0.667-1.491-1.491v-5.119
				c0-0.824,0.667-1.491,1.491-1.491l0,0c0.824,0,1.491,0.668,1.491,1.491v5.119C404.796,239.451,404.128,240.118,403.305,240.118z"
				/>
			<path style="fill:#E0E0E0;" d="M388.669,242.032L388.669,242.032c-0.582,0.582-1.526,0.582-2.109,0l-3.62-3.62
				c-0.582-0.582-0.582-1.526,0-2.109l0,0c0.582-0.582,1.527-0.582,2.109,0l3.62,3.62
				C389.251,240.506,389.251,241.45,388.669,242.032z"/>
			<g>
				<path style="fill:#E0E0E0;" d="M398.757,262.871h-1.2v-6.563c0-2.928-1.14-5.68-3.21-7.75l-8.966-8.966l0.848-0.849l8.966,8.966
					c2.297,2.297,3.562,5.351,3.562,8.599V262.871z"/>
			</g>
			<path style="fill:#E0E0E0;" d="M417.57,242.032L417.57,242.032c0.582,0.582,1.526,0.582,2.109,0l3.62-3.62
				c0.582-0.582,0.582-1.526,0-2.109l0,0c-0.582-0.582-1.526-0.582-2.109,0l-3.62,3.62
				C416.988,240.506,416.988,241.45,417.57,242.032z"/>
			<g>
				<path style="fill:#E0E0E0;" d="M408.683,262.871h-1.2v-6.563c0-3.248,1.265-6.302,3.562-8.599l8.966-8.966l0.849,0.849
					l-8.966,8.966c-2.07,2.07-3.21,4.823-3.21,7.75V262.871z"/>
			</g>
			<polygon style="fill:#E0E0E0;" points="429.108,283.64 377.501,283.64 373.9,261.012 432.709,261.012 			"/>
			<rect x="373.9" y="257.07" style="fill:#F0F0F0;" width="58.809" height="3.941"/>
			<rect x="391.874" y="266.022" style="fill:#F0F0F0;" width="22.861" height="113.759"/>
			<rect x="380.801" y="376.625" style="fill:#F0F0F0;" width="45.007" height="6.4"/>
		</g>
		<g>
			<g>
				<path style="fill:#F0F0F0;" d="M134.704,311.645c0,0-13.216,20.786-12.745,46.435
					C121.959,358.079,129.087,327.116,134.704,311.645z"/>
				<path style="fill:#F0F0F0;" d="M110.307,300.781c0,0,16.569,24.306,12.99,54.846
					C123.298,355.628,117.431,317.046,110.307,300.781z"/>
				<path style="fill:#F5F5F5;" d="M123.048,363.026c0,0,4.307-31.574-15.091-41.101
					C107.957,321.925,118.244,329.854,123.048,363.026z"/>
				<g>
					<path style="fill:#E0E0E0;" d="M125.038,372.148c-0.051-0.367-5.018-37.178,2.451-68.862l1.056,0.249
						c-7.423,31.483-2.484,68.098-2.433,68.465L125.038,372.148z"/>
				</g>
				<path style="fill:#E0E0E0;" d="M124.83,303.855l-0.354,0.077c-0.546,0.118-0.872,0.68-0.704,1.213l0.493,1.561
					c0.216,0.685,1.085,0.891,1.585,0.376l0.566-0.583c0.479-0.493,1.306-0.329,1.561,0.309l0.86,2.148
					c0.221,0.553,0.891,0.768,1.393,0.446l1.779-1.139c0.514-0.329,0.588-1.051,0.152-1.477l-0.298-0.292
					c-0.589-0.576-0.213-1.579,0.61-1.625l1.573-0.089c0.563-0.032,0.974-0.546,0.882-1.102l-0.22-1.33
					c-0.106-0.638-0.804-0.985-1.376-0.685l-0.109,0.057c-0.781,0.409-1.649-0.376-1.321-1.194l0.482-1.2
					c0.235-0.586-0.157-1.234-0.786-1.297l-1.689-0.17c-0.559-0.056-1.044,0.383-1.044,0.944l0,0c0,0.96-1.261,1.313-1.76,0.493
					l-0.235-0.387c-0.319-0.525-1.046-0.613-1.481-0.179l-1.21,1.207c-0.39,0.389-0.368,1.026,0.047,1.388l1.024,0.891
					C125.841,302.725,125.593,303.69,124.83,303.855z"/>
			</g>
			<path style="fill:#F0F0F0;" d="M126.95,354.563l1.364-10.57H116.34l1.364,10.57c-5.54,1.917-9.525,7.167-9.525,13.36
				c0,4.396,2.005,10.038,5.149,14.134h17.998c3.145-4.096,5.149-9.739,5.149-14.134
				C136.475,361.731,132.491,356.481,126.95,354.563z"/>
		</g>
	</g>
</g>
<g id="Background_Simple" style="display:none;">
	<g style="display:inline;">
		<path style="fill:#407BFF;" d="M335.07,331.656c30.063-16.435,119.622-61.992,105.86-133.536
			c-14.342-74.558-72.304-75.589-146.051-51.412c-68.87,22.578-65.629-56.841-158.784-26.302
			c-78.873,25.857-111.907,159.803,2.989,222.303C208.842,380.655,301.091,350.231,335.07,331.656z"/>
		<path style="opacity:0.9;fill:#FFFFFF;" d="M335.07,331.656c30.063-16.435,119.622-61.992,105.86-133.536
			c-14.342-74.558-72.304-75.589-146.051-51.412c-68.87,22.578-65.629-56.841-158.784-26.302
			c-78.873,25.857-111.907,159.803,2.989,222.303C208.842,380.655,301.091,350.231,335.07,331.656z"/>
	</g>
</g>
<g id="Shadow">
	<ellipse id="_x3C_Path_x3E__1_" style="fill:#F5F5F5;" cx="245.178" cy="412.391" rx="193.889" ry="11.323"/>
</g>
<g id="Graphic">
	<g>
		<g>
			<path style="fill:#407BFF;" d="M250,88.046c-66.6,0-120.59,53.99-120.59,120.59S183.4,329.226,250,329.226
				s120.59-53.99,120.59-120.59S316.6,88.046,250,88.046z M250,319.205c-61.066,0-110.569-49.503-110.569-110.569
				c0-9.77,1.273-19.241,3.651-28.263c0.967-0.428,1.78-1.246,1.906-1.997c0.148-0.883,1.969-2,4.065-2.442
				c2.096-0.442,4.381-0.062,5.062,0.833c0.681,0.895,1.115,2.741,0.964,4.071c-0.151,1.33-0.957,2.606-1.788,2.843
				c-0.831,0.236-1.737,2.912-2.017,5.917c-0.031,0.33-0.046,0.495-0.077,0.825c-0.28,3.001,0.659,6.396,2.093,7.639
				c1.435,1.243,2.243,3.153,1.788,4.166c-0.455,1.013,1.4,2.318,4.15,2.974c2.75,0.656,5.022,1.573,5.022,1.981
				c0,0.407,0.882,1.007,1.965,1.341c1.083,0.334,2.098,1.571,2.253,2.745c0.155,1.174,0.917,1.747,1.695,1.261
				c0.778-0.486,1.799-0.466,2.267,0.058c0.469,0.525,0.596,1.795,0.284,2.81c-0.312,1.015-1.079,1.954-1.702,2.09
				c-0.623,0.136-1.132,1.418-1.132,2.851c0,1.433,1.208,3.878,2.692,5.476c1.484,1.598,2.318,4.106,1.848,5.518
				c-0.47,1.412,0.49,3.582,2.139,4.862c1.649,1.28,3.005,5.259,3.005,8.817c0,2.816,0,4.224,0,7.04
				c0,3.559,0.645,7.131,1.435,7.942c0.79,0.811,1.243,2.683,1.006,4.147c-0.238,1.464,1.12,4.018,3.026,5.691
				c1.906,1.673,3.863,1.867,4.342,0.41c0.479-1.457,0.086-3.29-0.87-4.058c-0.957-0.769-1.673-3.925-1.593-7.019
				c0.079-3.095,2.126-7.221,4.56-9.289c1.461-1.241,2.193-1.875,3.661-3.167c2.443-2.152,4.188-5.83,3.866-8.056
				c-0.322-2.226,0.534-5.271,1.906-6.808c1.372-1.536,1.306-5.266-0.147-8.212c-1.452-2.946-4.154-5.602-5.999-5.945
				c-1.846-0.343-3.35-1.46-3.35-2.484s-0.916-1.88-2.034-1.903c-1.117-0.023-2.746-0.959-3.62-2.064
				c-0.874-1.105-4.196-2.01-7.357-2.03c-0.555-0.004-0.832-0.005-1.386-0.009c-3.155-0.02-5.778-0.803-5.855-1.737
				s-1.098-1.963-2.263-2.28c-1.164-0.317-2.114-1.313-2.114-2.223c0-0.91-0.823-1.962-1.826-2.325
				c-1.003-0.363-1.381-1.665-0.841-2.921c0.539-1.256,2.306-2.803,3.935-3.435c1.628-0.632,3.541-0.376,4.243,0.6
				c0.702,0.975,1.662,1.764,2.132,1.737c0.47-0.027,0.855-1.044,0.855-2.259c0-1.215,2.179-3.897,4.862-6.039
				c0.115-0.092,0.173-0.138,0.288-0.23c2.684-2.146,4.7-5.132,4.461-6.558c-0.238-1.426,2.155-2.565,5.341-2.478
				c0.362,0.01,0.542,0.015,0.905,0.026c3.189,0.095,5.815-1.877,5.815-4.438c0-2.561-0.592-4.585-1.315-4.495
				c-0.723,0.09-1.838-0.999-2.48-2.408c-0.641-1.409-2.868-1.906-4.94-1.112c-2.072,0.794-4.084,1.949-4.48,2.556
				c-0.396,0.608-1.693,0.745-2.877,0.328c-1.185-0.417-0.863-1.846,0.718-3.215c1.581-1.369,3.27-4.056,3.746-5.968
				c0.476-1.912-1.738-3.202-4.898-2.767c-0.917,0.126-1.374,0.192-2.288,0.327c-3.15,0.466-6.342,2-7.122,3.305
				c-0.779,1.306-3.951,2.651-7.02,3.102c-6.813,1.001-10.309,1.666-16.664,3.245C163.642,126.823,203.46,98.067,250,98.067
				c48.183,0,89.16,30.823,104.308,73.825c-2.646-0.7-5.263-2.005-6.069-3.195c-0.903-1.334-4.086-3.693-7.104-5.197
				c-1.272-0.634-1.91-0.95-3.189-1.579c-3.036-1.493-8.038-2.882-11.112-2.994c-0.53-0.019-0.795-0.028-1.326-0.043
				c-3.08-0.089-6.978-1.831-8.641-4.016c-1.664-2.185-5.641-4.612-8.854-5.285c-3.823-0.801-5.745-1.168-9.603-1.834
				c-3.243-0.56-6.973-0.238-8.273,0.665c-1.3,0.902-2.366,2.389-2.366,3.278c0,0.889-1.399,1.935-3.112,2.351
				c-1.713,0.416-3.318,0.267-3.564-0.357c-0.245-0.624-2.318-1.315-4.612-1.503c-2.294-0.188-4.846-0.361-5.667-0.414
				c-0.821-0.053-3.846-1.236-6.726-2.592c-2.88-1.357-6.924-1.475-8.983-0.275c-2.06,1.199-4.353,4.22-5.095,6.688
				c-0.741,2.467-0.877,5.58-0.3,6.916c0.577,1.336,2.061,2.432,3.297,2.44c1.236,0.009,2.45-0.816,2.697-1.84
				c0.247-1.024,1.191-2.186,2.097-2.578c0.906-0.392,1.782,1.392,1.947,3.959c0.165,2.567-1.587,5.465-3.894,6.465
				c-2.307,1-4.397,0.659-4.645-0.781c-0.247-1.44-1.326-2.788-2.398-2.991c-1.072-0.203-1.948,0.981-1.948,2.626
				s-1.146,3.417-2.547,3.945s-3.018,1.896-3.595,3.034c-0.577,1.137-0.711,2.901-0.3,3.92c0.412,1.02-0.33,1.868-1.647,1.888
				c-1.317,0.02-2.125,1.793-1.796,3.937c0.329,2.144,1.676,3.887,2.994,3.875c1.318-0.013,2.598-0.945,2.845-2.077
				c0.247-1.131,1.461-1.981,2.697-1.885c1.236,0.096,2.922-0.328,3.746-0.946c0.824-0.618,2.173-0.111,2.997,1.124
				c0.824,1.236,1.229,3.171,0.899,4.301c-0.33,1.13,0.277,1.551,1.348,0.939c1.071-0.612,1.543-2.542,1.049-4.291
				c-0.494-1.749-0.494-3.431,0-3.735c0.495-0.305,1.843,0.967,2.996,2.826c1.153,1.858,3.107,2.884,4.341,2.287
				c1.235-0.598,3.119,0.103,4.188,1.548c1.069,1.445,1.741,3.704,1.495,5.025c-0.246,1.321-2.667,3.047-5.383,3.849
				c-2.716,0.802-6.22,0.792-7.786-0.034c-1.566-0.826-3.251-2.594-3.746-3.931c-0.495-1.337-2.787-2.517-5.094-2.613
				c-2.308-0.096-6.308,1.954-8.889,4.541c-1.035,1.037-1.552,1.555-2.587,2.59c-2.579,2.58-4.888,6.591-5.135,8.93
				c-0.247,2.339-0.851,4.58-1.344,4.983c-0.493,0.403-0.896,2.557-0.896,4.788c0,2.231,1.611,5.746,3.584,7.82
				c1.972,2.074,6.01,3.823,8.975,3.858c2.965,0.035,6.268,0.723,7.34,1.549c1.071,0.826,2.015,3.181,2.098,5.237
				c0.083,2.056,1.161,4.328,2.398,5.043c1.236,0.715,1.935,4.65,1.553,8.753c-0.043,0.466-0.065,0.699-0.108,1.165
				c-0.382,4.102,0.047,8.799,0.953,10.431c0.906,1.632,1.783,5.144,1.947,7.81c0.165,2.666,2.12,5.226,4.343,5.65
				c2.223,0.424,5.858-1.537,8.077-4.331c2.219-2.793,3.964-7.65,3.882-10.787c-0.082-3.137,1.127-7.024,2.684-8.636
				c1.557-1.612,2.897-5.979,2.979-9.704c0.082-3.725,1.421-8.474,2.974-10.541c1.553-2.067,2.621-4.958,2.376-6.444
				c-0.245-1.486-2.115-3.228-4.16-3.884c-2.045-0.656-3.789-2.526-3.871-4.14c-0.082-1.614-0.82-3.838-1.64-4.946
				c-0.82-1.108-1.424-3.346-1.342-4.968c0.082-1.622,0.619-2.946,1.193-2.944c0.574,0.002,2.184,1.914,3.576,4.228
				c1.392,2.314,2.463,5.257,2.381,6.562c-0.082,1.305,0.454,2.61,1.189,2.897c0.735,0.287,3.209-0.909,5.49-2.63
				c2.281-1.721,2.746-5.656,1.036-8.823c-1.71-3.167-1.91-5.86-0.444-5.937c1.466-0.077,2.93,0.833,3.254,2.015
				c0.325,1.182,1.987,3.363,3.689,4.824c1.702,1.461,4.083,3.102,5.294,3.665c1.21,0.563,2.066,2.655,1.905,4.662
				c-0.161,2.007,1.62,5.701,3.947,8.116c2.327,2.415,5.127,1.378,6.231-2.153c0.482-1.541,0.723-2.308,1.203-3.835
				c1.102-3.499,3.042-6.106,4.309-5.86c1.267,0.245,3.011,2.615,3.879,5.229c0.867,2.614,2.282,5.457,3.145,6.345
				c0.863,0.888,1.504,0.192,1.426-1.531c-0.078-1.723,0.178-3.154,0.569-3.178c0.391-0.023,1.095,0.427,1.563,0.994
				c0.468,0.567,1.936,0.248,3.256-0.68c1.321-0.928,2.333-4.169,2.256-7.232c-0.078-3.063,0.81-5.838,1.967-6.153
				c1.157-0.314,2.415-1.815,2.799-3.328c0.384-1.514-0.243-3.898-1.398-5.355c-1.154-1.457-1.534-3.712-0.84-4.949
				c0.694-1.236,1.763-2.17,2.377-2.098c0.614,0.072,2.176-2.126,3.465-4.774c1.009-2.071,1.512-3.085,2.516-5.068
				c1.284-2.536,2.947-3.986,3.701-3.349c0.754,0.637,1.368,2.12,1.368,3.302c0,1.182,0.615,2.583,1.365,3.106
				c0.749,0.523,2.094-0.443,2.988-2.074c0.556-1.014,1.729-2.082,3.049-2.859c2.674,9.525,4.107,19.568,4.107,29.947
				C360.569,269.701,311.065,319.205,250,319.205z"/>
			<path style="fill:#407BFF;" d="M209.592,142.669c-0.119-0.072-0.178-0.108-0.297-0.18c-2.762-1.674-7.568-1.591-10.673,0.104
				c-1.926,1.052-2.888,1.582-4.805,2.65c-3.091,1.721-5.604,3.98-5.604,4.991c0,1.012,0.587,3.064,1.305,4.583
				c0.718,1.519,1.045,3.817,0.726,5.079c-0.32,1.262,0.725,2.366,2.326,2.481c1.602,0.115,3.902,1.468,5.109,3.018
				c1.207,1.55,2.989,3.063,3.958,3.339c0.969,0.276,2.756-1.731,3.971-4.495c1.215-2.764,4.071-6.149,6.35-7.489
				c2.279-1.34,3.815-4.35,3.408-6.691C214.958,147.72,212.355,144.348,209.592,142.669z"/>
			<path style="fill:#407BFF;" d="M285.845,248.693c-0.57-0.349-1.371-0.612-1.779-0.58c-0.408,0.032-1.343,1.244-2.078,2.7
				c-0.735,1.456-1.338,4.209-1.338,6.112c0,1.904,0.468,4.075,1.04,4.82c0.572,0.745,1.507,0.976,2.079,0.519
				c0.571-0.458,1.506-3.567,2.076-6.896C286.415,252.038,286.415,249.042,285.845,248.693z"/>
			<path style="fill:#407BFF;" d="M238.179,171.427c0.823,0.186,2.238-0.011,3.144-0.437c0.906-0.426,1.647-2.369,1.647-4.319
				c0-1.951-0.539-3.538-1.198-3.525c-0.659,0.013-1.4,0.869-1.647,1.9c-0.247,1.031-1.123,1.973-1.946,2.098
				c-0.823,0.124-1.497,1.065-1.497,2.088C236.682,170.255,237.356,171.241,238.179,171.427z"/>
			<path style="fill:#407BFF;" d="M343.978,250.45c0.987-1.549,1.791-4.033,1.791-5.55c0-1.518-0.804-4.276-1.791-6.201
				c-0.987-1.925-2.234-3.661-2.768-3.793c-0.534-0.133-0.972,0.467-0.972,1.336c0,0.87-0.563,1.57-1.252,1.551
				c-0.69-0.019-1.569-0.371-1.954-0.782c-0.384-0.411-1.77-0.357-3.083,0.127c-1.314,0.484-2.965,1.8-3.665,2.94
				c-0.7,1.139-2.356,2.844-3.686,3.785c-1.329,0.941-2.292,3.761-2.135,6.247c0.157,2.487,1.312,4.27,2.562,3.961
				c1.25-0.309,3.161-0.798,4.248-1.084c1.087-0.286,2.543-0.205,3.238,0.173c0.695,0.379,2.713,0.589,4.476,0.438
				C340.749,253.448,342.992,251.999,343.978,250.45z"/>
			<path style="fill:#407BFF;" d="M344.669,203.19c0.607,0.022,1.907-1.363,2.887-3.022c0.98-1.659,1.533-4.678,1.232-6.789
				c-0.301-2.11-1.101-4.242-1.781-4.723c-0.679-0.481-1.731-0.649-2.338-0.357c-0.607,0.291-0.793,1.403-0.414,2.451
				c0.379,1.048,0.007,3.498-0.829,5.512c-0.836,2.013-1.148,4.43-0.691,5.306C343.192,202.444,344.062,203.168,344.669,203.19z"/>
			<path style="fill:#407BFF;" d="M349.607,246.833c-0.451,0.811-1.189,2.212-1.641,3.113c-0.452,0.902-1.995,2.98-3.435,4.644
				c-1.441,1.664-2.377,3.603-2.072,4.267c0.305,0.664,1.549,0.818,2.761,0.336c1.212-0.482,2.63-2.415,3.157-4.255
				c0.527-1.84,1.756-4.285,2.729-5.439c0.973-1.154,1.216-2.525,0.544-3.089C350.977,245.846,350.057,246.022,349.607,246.833z"/>
		</g>
		<g style="opacity:0.7;">
			<path style="fill:#FFFFFF;" d="M250,88.046c-66.6,0-120.59,53.99-120.59,120.59S183.4,329.226,250,329.226
				s120.59-53.99,120.59-120.59S316.6,88.046,250,88.046z M250,319.205c-61.066,0-110.569-49.503-110.569-110.569
				c0-9.77,1.273-19.241,3.651-28.263c0.967-0.428,1.78-1.246,1.906-1.997c0.148-0.883,1.969-2,4.065-2.442
				c2.096-0.442,4.381-0.062,5.062,0.833c0.681,0.895,1.115,2.741,0.964,4.071c-0.151,1.33-0.957,2.606-1.788,2.843
				c-0.831,0.236-1.737,2.912-2.017,5.917c-0.031,0.33-0.046,0.495-0.077,0.825c-0.28,3.001,0.659,6.396,2.093,7.639
				c1.435,1.243,2.243,3.153,1.788,4.166c-0.455,1.013,1.4,2.318,4.15,2.974c2.75,0.656,5.022,1.573,5.022,1.981
				c0,0.407,0.882,1.007,1.965,1.341c1.083,0.334,2.098,1.571,2.253,2.745c0.155,1.174,0.917,1.747,1.695,1.261
				c0.778-0.486,1.799-0.466,2.267,0.058c0.469,0.525,0.596,1.795,0.284,2.81c-0.312,1.015-1.079,1.954-1.702,2.09
				c-0.623,0.136-1.132,1.418-1.132,2.851c0,1.433,1.208,3.878,2.692,5.476c1.484,1.598,2.318,4.106,1.848,5.518
				c-0.47,1.412,0.49,3.582,2.139,4.862c1.649,1.28,3.005,5.259,3.005,8.817c0,2.816,0,4.224,0,7.04
				c0,3.559,0.645,7.131,1.435,7.942c0.79,0.811,1.243,2.683,1.006,4.147c-0.238,1.464,1.12,4.018,3.026,5.691
				c1.906,1.673,3.863,1.867,4.342,0.41c0.479-1.457,0.086-3.29-0.87-4.058c-0.957-0.769-1.673-3.925-1.593-7.019
				c0.079-3.095,2.126-7.221,4.56-9.289c1.461-1.241,2.193-1.875,3.661-3.167c2.443-2.152,4.188-5.83,3.866-8.056
				c-0.322-2.226,0.534-5.271,1.906-6.808c1.372-1.536,1.306-5.266-0.147-8.212c-1.452-2.946-4.154-5.602-5.999-5.945
				c-1.846-0.343-3.35-1.46-3.35-2.484s-0.916-1.88-2.034-1.903c-1.117-0.023-2.746-0.959-3.62-2.064
				c-0.874-1.105-4.196-2.01-7.357-2.03c-0.555-0.004-0.832-0.005-1.386-0.009c-3.155-0.02-5.778-0.803-5.855-1.737
				s-1.098-1.963-2.263-2.28c-1.164-0.317-2.114-1.313-2.114-2.223c0-0.91-0.823-1.962-1.826-2.325
				c-1.003-0.363-1.381-1.665-0.841-2.921c0.539-1.256,2.306-2.803,3.935-3.435c1.628-0.632,3.541-0.376,4.243,0.6
				c0.702,0.975,1.662,1.764,2.132,1.737c0.47-0.027,0.855-1.044,0.855-2.259c0-1.215,2.179-3.897,4.862-6.039
				c0.115-0.092,0.173-0.138,0.288-0.23c2.684-2.146,4.7-5.132,4.461-6.558c-0.238-1.426,2.155-2.565,5.341-2.478
				c0.362,0.01,0.542,0.015,0.905,0.026c3.189,0.095,5.815-1.877,5.815-4.438c0-2.561-0.592-4.585-1.315-4.495
				c-0.723,0.09-1.838-0.999-2.48-2.408c-0.641-1.409-2.868-1.906-4.94-1.112c-2.072,0.794-4.084,1.949-4.48,2.556
				c-0.396,0.608-1.693,0.745-2.877,0.328c-1.185-0.417-0.863-1.846,0.718-3.215c1.581-1.369,3.27-4.056,3.746-5.968
				c0.476-1.912-1.738-3.202-4.898-2.767c-0.917,0.126-1.374,0.192-2.288,0.327c-3.15,0.466-6.342,2-7.122,3.305
				c-0.779,1.306-3.951,2.651-7.02,3.102c-6.813,1.001-10.309,1.666-16.664,3.245C163.642,126.823,203.46,98.067,250,98.067
				c48.183,0,89.16,30.823,104.308,73.825c-2.646-0.7-5.263-2.005-6.069-3.195c-0.903-1.334-4.086-3.693-7.104-5.197
				c-1.272-0.634-1.91-0.95-3.189-1.579c-3.036-1.493-8.038-2.882-11.112-2.994c-0.53-0.019-0.795-0.028-1.326-0.043
				c-3.08-0.089-6.978-1.831-8.641-4.016c-1.664-2.185-5.641-4.612-8.854-5.285c-3.823-0.801-5.745-1.168-9.603-1.834
				c-3.243-0.56-6.973-0.238-8.273,0.665c-1.3,0.902-2.366,2.389-2.366,3.278c0,0.889-1.399,1.935-3.112,2.351
				c-1.713,0.416-3.318,0.267-3.564-0.357c-0.245-0.624-2.318-1.315-4.612-1.503c-2.294-0.188-4.846-0.361-5.667-0.414
				c-0.821-0.053-3.846-1.236-6.726-2.592c-2.88-1.357-6.924-1.475-8.983-0.275c-2.06,1.199-4.353,4.22-5.095,6.688
				c-0.741,2.467-0.877,5.58-0.3,6.916c0.577,1.336,2.061,2.432,3.297,2.44c1.236,0.009,2.45-0.816,2.697-1.84
				c0.247-1.024,1.191-2.186,2.097-2.578c0.906-0.392,1.782,1.392,1.947,3.959c0.165,2.567-1.587,5.465-3.894,6.465
				c-2.307,1-4.397,0.659-4.645-0.781c-0.247-1.44-1.326-2.788-2.398-2.991c-1.072-0.203-1.948,0.981-1.948,2.626
				s-1.146,3.417-2.547,3.945s-3.018,1.896-3.595,3.034c-0.577,1.137-0.711,2.901-0.3,3.92c0.412,1.02-0.33,1.868-1.647,1.888
				c-1.317,0.02-2.125,1.793-1.796,3.937c0.329,2.144,1.676,3.887,2.994,3.875c1.318-0.013,2.598-0.945,2.845-2.077
				c0.247-1.131,1.461-1.981,2.697-1.885c1.236,0.096,2.922-0.328,3.746-0.946c0.824-0.618,2.173-0.111,2.997,1.124
				c0.824,1.236,1.229,3.171,0.899,4.301c-0.33,1.13,0.277,1.551,1.348,0.939c1.071-0.612,1.543-2.542,1.049-4.291
				c-0.494-1.749-0.494-3.431,0-3.735c0.495-0.305,1.843,0.967,2.996,2.826c1.153,1.858,3.107,2.884,4.341,2.287
				c1.235-0.598,3.119,0.103,4.188,1.548c1.069,1.445,1.741,3.704,1.495,5.025c-0.246,1.321-2.667,3.047-5.383,3.849
				c-2.716,0.802-6.22,0.792-7.786-0.034c-1.566-0.826-3.251-2.594-3.746-3.931c-0.495-1.337-2.787-2.517-5.094-2.613
				c-2.308-0.096-6.308,1.954-8.889,4.541c-1.035,1.037-1.552,1.555-2.587,2.59c-2.579,2.58-4.888,6.591-5.135,8.93
				c-0.247,2.339-0.851,4.58-1.344,4.983c-0.493,0.403-0.896,2.557-0.896,4.788c0,2.231,1.611,5.746,3.584,7.82
				c1.972,2.074,6.01,3.823,8.975,3.858c2.965,0.035,6.268,0.723,7.34,1.549c1.071,0.826,2.015,3.181,2.098,5.237
				c0.083,2.056,1.161,4.328,2.398,5.043c1.236,0.715,1.935,4.65,1.553,8.753c-0.043,0.466-0.065,0.699-0.108,1.165
				c-0.382,4.102,0.047,8.799,0.953,10.431c0.906,1.632,1.783,5.144,1.947,7.81c0.165,2.666,2.12,5.226,4.343,5.65
				c2.223,0.424,5.858-1.537,8.077-4.331c2.219-2.793,3.964-7.65,3.882-10.787c-0.082-3.137,1.127-7.024,2.684-8.636
				c1.557-1.612,2.897-5.979,2.979-9.704c0.082-3.725,1.421-8.474,2.974-10.541c1.553-2.067,2.621-4.958,2.376-6.444
				c-0.245-1.486-2.115-3.228-4.16-3.884c-2.045-0.656-3.789-2.526-3.871-4.14c-0.082-1.614-0.82-3.838-1.64-4.946
				c-0.82-1.108-1.424-3.346-1.342-4.968c0.082-1.622,0.619-2.946,1.193-2.944c0.574,0.002,2.184,1.914,3.576,4.228
				c1.392,2.314,2.463,5.257,2.381,6.562c-0.082,1.305,0.454,2.61,1.189,2.897c0.735,0.287,3.209-0.909,5.49-2.63
				c2.281-1.721,2.746-5.656,1.036-8.823c-1.71-3.167-1.91-5.86-0.444-5.937c1.466-0.077,2.93,0.833,3.254,2.015
				c0.325,1.182,1.987,3.363,3.689,4.824c1.702,1.461,4.083,3.102,5.294,3.665c1.21,0.563,2.066,2.655,1.905,4.662
				c-0.161,2.007,1.62,5.701,3.947,8.116c2.327,2.415,5.127,1.378,6.231-2.153c0.482-1.541,0.723-2.308,1.203-3.835
				c1.102-3.499,3.042-6.106,4.309-5.86c1.267,0.245,3.011,2.615,3.879,5.229c0.867,2.614,2.282,5.457,3.145,6.345
				c0.863,0.888,1.504,0.192,1.426-1.531c-0.078-1.723,0.178-3.154,0.569-3.178c0.391-0.023,1.095,0.427,1.563,0.994
				c0.468,0.567,1.936,0.248,3.256-0.68c1.321-0.928,2.333-4.169,2.256-7.232c-0.078-3.063,0.81-5.838,1.967-6.153
				c1.157-0.314,2.415-1.815,2.799-3.328c0.384-1.514-0.243-3.898-1.398-5.355c-1.154-1.457-1.534-3.712-0.84-4.949
				c0.694-1.236,1.763-2.17,2.377-2.098c0.614,0.072,2.176-2.126,3.465-4.774c1.009-2.071,1.512-3.085,2.516-5.068
				c1.284-2.536,2.947-3.986,3.701-3.349c0.754,0.637,1.368,2.12,1.368,3.302c0,1.182,0.615,2.583,1.365,3.106
				c0.749,0.523,2.094-0.443,2.988-2.074c0.556-1.014,1.729-2.082,3.049-2.859c2.674,9.525,4.107,19.568,4.107,29.947
				C360.569,269.701,311.065,319.205,250,319.205z"/>
			<path style="fill:#FFFFFF;" d="M209.592,142.669c-0.119-0.072-0.178-0.108-0.297-0.18c-2.762-1.674-7.568-1.591-10.673,0.104
				c-1.926,1.052-2.888,1.582-4.805,2.65c-3.091,1.721-5.604,3.98-5.604,4.991c0,1.012,0.587,3.064,1.305,4.583
				c0.718,1.519,1.045,3.817,0.726,5.079c-0.32,1.262,0.725,2.366,2.326,2.481c1.602,0.115,3.902,1.468,5.109,3.018
				c1.207,1.55,2.989,3.063,3.958,3.339c0.969,0.276,2.756-1.731,3.971-4.495c1.215-2.764,4.071-6.149,6.35-7.489
				c2.279-1.34,3.815-4.35,3.408-6.691C214.958,147.72,212.355,144.348,209.592,142.669z"/>
			<path style="fill:#FFFFFF;" d="M285.845,248.693c-0.57-0.349-1.371-0.612-1.779-0.58c-0.408,0.032-1.343,1.244-2.078,2.7
				c-0.735,1.456-1.338,4.209-1.338,6.112c0,1.904,0.468,4.075,1.04,4.82c0.572,0.745,1.507,0.976,2.079,0.519
				c0.571-0.458,1.506-3.567,2.076-6.896C286.415,252.038,286.415,249.042,285.845,248.693z"/>
			<path style="fill:#FFFFFF;" d="M238.179,171.427c0.823,0.186,2.238-0.011,3.144-0.437c0.906-0.426,1.647-2.369,1.647-4.319
				c0-1.951-0.539-3.538-1.198-3.525c-0.659,0.013-1.4,0.869-1.647,1.9c-0.247,1.031-1.123,1.973-1.946,2.098
				c-0.823,0.124-1.497,1.065-1.497,2.088C236.682,170.255,237.356,171.241,238.179,171.427z"/>
			<path style="fill:#FFFFFF;" d="M343.978,250.45c0.987-1.549,1.791-4.033,1.791-5.55c0-1.518-0.804-4.276-1.791-6.201
				c-0.987-1.925-2.234-3.661-2.768-3.793c-0.534-0.133-0.972,0.467-0.972,1.336c0,0.87-0.563,1.57-1.252,1.551
				c-0.69-0.019-1.569-0.371-1.954-0.782c-0.384-0.411-1.77-0.357-3.083,0.127c-1.314,0.484-2.965,1.8-3.665,2.94
				c-0.7,1.139-2.356,2.844-3.686,3.785c-1.329,0.941-2.292,3.761-2.135,6.247c0.157,2.487,1.312,4.27,2.562,3.961
				c1.25-0.309,3.161-0.798,4.248-1.084c1.087-0.286,2.543-0.205,3.238,0.173c0.695,0.379,2.713,0.589,4.476,0.438
				C340.749,253.448,342.992,251.999,343.978,250.45z"/>
			<path style="fill:#FFFFFF;" d="M344.669,203.19c0.607,0.022,1.907-1.363,2.887-3.022c0.98-1.659,1.533-4.678,1.232-6.789
				c-0.301-2.11-1.101-4.242-1.781-4.723c-0.679-0.481-1.731-0.649-2.338-0.357c-0.607,0.291-0.793,1.403-0.414,2.451
				c0.379,1.048,0.007,3.498-0.829,5.512c-0.836,2.013-1.148,4.43-0.691,5.306C343.192,202.444,344.062,203.168,344.669,203.19z"/>
			<path style="fill:#FFFFFF;" d="M349.607,246.833c-0.451,0.811-1.189,2.212-1.641,3.113c-0.452,0.902-1.995,2.98-3.435,4.644
				c-1.441,1.664-2.377,3.603-2.072,4.267c0.305,0.664,1.549,0.818,2.761,0.336c1.212-0.482,2.63-2.415,3.157-4.255
				c0.527-1.84,1.756-4.285,2.729-5.439c0.973-1.154,1.216-2.525,0.544-3.089C350.977,245.846,350.057,246.022,349.607,246.833z"/>
		</g>
	</g>
</g>
<g id="Character_2_1_">
	<g>
		<polygon style="fill:#B55B52;" points="269.594,390.622 270.636,404.625 264.415,404.625 261.358,391.119 		"/>
		<path style="fill:#263238;" d="M270.908,403.86l-7.637-0.01c-0.33,0.005-0.572,0.24-0.582,0.565l-1.331,7.341
			c-0.023,0.636,0.494,1.261,1.153,1.396c0.085,0.017,0.17,0.026,0.253,0.026c3.15-0.109,5.926-0.331,9.862-0.393
			c4.643-0.078,3.573,0.499,9.047,0.483c3.297-0.013,3.174-3.773,1.744-3.934c-6.539-0.697-7.575-2.618-10.481-4.868
			C272.316,404.036,271.594,403.82,270.908,403.86z"/>
		<path style="fill:#263238;" d="M260.976,261.491l10.783,140.194l-9.204,0.454c0,0-9.289-33.027-11.004-53.101
			c-0.118-1.385-0.201-2.711-0.241-3.964c-0.19-5.86-0.808-11.698-2.034-17.431l-0.428-1.999l-6.023-28.157
			c0,0-9.132-15.29-3.954-36.635L260.976,261.491z"/>
		<path style="opacity:0.4;" d="M246.007,312.364c3.056-15.357,1.527-33.577,1.527-33.577l-4.522,1.813l-3.051,8.477
			c0,0,0.009,0.679,0.033,1.81c1.406,4.203,2.831,6.597,2.831,6.597L246.007,312.364z"/>
		<polygon style="fill:#B55B52;" points="227.446,390.622 225.403,404.625 219.182,404.625 219.21,391.119 		"/>
		<path style="fill:#263238;" d="M225.925,403.86l-7.637-0.01c-0.33,0.005-0.573,0.24-0.582,0.565l-1.331,7.341
			c-0.023,0.636,0.494,1.261,1.153,1.396c0.085,0.017,0.17,0.026,0.253,0.026c3.15-0.109,5.926-0.331,9.862-0.393
			c4.643-0.078,3.573,0.499,9.046,0.483c3.297-0.013,3.174-3.773,1.744-3.934c-6.539-0.697-7.575-2.618-10.481-4.868
			C227.332,404.036,226.611,403.82,225.925,403.86z"/>
		<path style="fill:#263238;" d="M252.337,261.491l-9.675,45.839l-15.295,94.582l-9.171-0.399c0,0-2.022-30.489,0.736-50.791
			c0.218-1.602,0.465-3.141,0.746-4.597c1.307-6.779,2.043-13.655,1.97-20.557l-0.021-1.987l-0.276-26.095
			c0,0-1.904-19.806,3.372-36.635L252.337,261.491z"/>
		<path style="opacity:0.4;" d="M260.976,261.49l-22.107-0.641c-0.027,0.11-0.048,0.217-0.073,0.327l-14.074-0.327
			c-1.712,5.462-2.666,11.234-3.176,16.544l20.254,2.876c2.3,0.327,4.486-1.105,5.106-3.344l2.029-7.324l1.978,7.295
			c0.601,2.218,2.822,3.586,5.074,3.126l6.316-1.29L260.976,261.49z"/>
		<g>
			<g>
				<path style="fill:#B55B52;" d="M288.743,229.858l5.718,0.29c0,0,2.677-1.264,3.635-1.477c0.999-0.221,3.225-0.758,4.086-0.206
					c0.93,0.596,1.854,3.021,1.636,4.103c-0.286,1.417-2.639,3.828-4.054,4.121c-1.505,0.311-5.694-2.313-5.694-2.313l-5.848-0.057
					L288.743,229.858z"/>
				<polygon style="fill:#407BFF;" points="287.622,229.02 292.5,229.61 291.164,234.934 286.281,234.872 				"/>
				<polygon style="opacity:0.8;fill:#FFFFFF;" points="287.622,229.02 292.5,229.61 291.164,234.934 286.281,234.872 				"/>
			</g>
			<path style="fill:#263238;" d="M255.917,189.909c0,0,4.277,1.977,10.732,20.219c5.671,16.026,23.199,18.62,23.199,18.62
				l-1.495,6.733c0,0-24.02,0.405-28.408-17.818C255.557,199.442,255.917,189.909,255.917,189.909z"/>
			<path style="opacity:0.4;" d="M259.945,217.664c0.817,3.393,2.316,6.139,4.213,8.363c-0.192-11.646-3.321-23.821-3.321-23.821
				l-3.193,0.843l-0.213,2.387C258.018,208.94,258.827,213.018,259.945,217.664z"/>
		</g>
		<path style="fill:#263238;" d="M221.383,240.018l-2.12,34.174l22.537,3.2c2.301,0.327,4.486-1.105,5.107-3.344l2.028-7.324
			l1.978,7.295c0.601,2.218,2.822,3.586,5.074,3.126l8.565-1.75l-1.557-35.377c0,0,1.234-32.161-3.579-45.772
			c-0.956-2.703-3.22-4.726-6.008-5.391c-6.346-1.515-19.98-3.418-35.46,2.688c-1.439,0.568-2.321,2.035-2.131,3.57L221.383,240.018
			z"/>
		<path style="opacity:0.4;" d="M220.439,232.402c0.001-0.006,0.001-0.011,0.002-0.017c2.814-19.562-0.299-34.443-0.299-34.443
			l-2.123,0.419l-1.074,5.862L220.439,232.402z"/>
		<g>
			<path style="fill:#B55B52;" d="M217.524,260.704l1.399,6.639c0,0,2.517,2.732,3.099,3.774c0.606,1.086,2.015,3.497,1.549,4.633
				c-0.503,1.227-3.44,2.941-4.948,2.982c-1.973,0.054-5.916-1.997-6.747-3.542c-0.883-1.643,1.299-7.157,1.299-7.157l-1.749-6.726
				L217.524,260.704z"/>
			<g>
				<polygon style="fill:#407BFF;" points="218.137,257.259 219.343,264.82 211.474,266.122 209.586,258.457 				"/>
				<polygon style="opacity:0.8;fill:#FFFFFF;" points="218.137,257.259 219.343,264.82 211.474,266.122 209.586,258.457 				"/>
			</g>
			<path style="fill:#263238;" d="M209.959,263.839c0,0-4.53-12.823-3.567-33.876c0.963-21.053,7.418-41.741,13.964-37.72
				c6.546,4.02-1.316,27.745-2.043,38.539c-0.726,10.794,0.974,31.59,0.974,31.59L209.959,263.839z"/>
		</g>
		<circle style="fill:#407BFF;" cx="245.43" cy="224.094" r="0.943"/>
		<path style="fill:#407BFF;" d="M248.861,244.157c0,0.521-0.423,0.943-0.943,0.943c-0.521,0-0.944-0.422-0.944-0.943
			s0.422-0.943,0.944-0.943C248.439,243.214,248.861,243.636,248.861,244.157z"/>
		<circle style="fill:#407BFF;" cx="248.861" cy="262.55" r="0.943"/>
		<g>
			<rect x="251.135" y="209.761" style="fill:#407BFF;" width="7.352" height="4.442"/>
			<rect x="251.135" y="211.208" style="opacity:0.4;fill:#FFFFFF;" width="7.352" height="2.995"/>
			<rect x="251.135" y="212.581" style="opacity:0.4;fill:#FFFFFF;" width="7.352" height="1.622"/>
		</g>
		<path style="fill:#263238;" d="M231.204,186.939c0,0,5.012-2.174,11.287-0.784l2.317,1.32l0.813,2.58l-2.934,2.3l-6.928,0.705
			l-5.726-2.368l0.318-2.545L231.204,186.939z"/>
		<g>
			<path style="fill:#B55B52;" d="M243.642,188.271c-1.535-2.034-2.237-4.087-1.701-6.557l-10.37-8.403
				c1.186,9.038,1.288,11.617-0.8,15.648c0,0,3.746,4.029,8.998,3.075C245.021,191.08,243.642,188.271,243.642,188.271z"/>
			<path style="opacity:0.2;" d="M241.941,181.714l-10.37-8.403c0.267,2.034,0.475,3.728,0.62,5.198
				c1.1,2.233,3.921,6.302,9.786,6.472C241.719,183.956,241.687,182.883,241.941,181.714z"/>
			<path style="fill:#263238;" d="M238.169,155.531c0,0,3.694-3.464,6.089-2.404c2.395,1.06-2.303,1.767-2.303,1.767
				s8.376-0.778,5.406,6.787L238.169,155.531z"/>
			<path style="fill:#B55B52;" d="M229.827,166.681c1.464,6.7,1.987,10.69,5.943,13.623c5.945,4.424,13.811,0.007,14.367-6.974
				c0.503-6.332-1.986-16.192-9.022-17.849c-5.016-1.209-10.063,1.877-11.272,6.893
				C229.503,163.789,229.498,165.264,229.827,166.681z"/>
			<path style="fill:#263238;" d="M240.71,166.987c0.087,0.554,0.445,0.956,0.807,0.898c0.361-0.059,0.58-0.547,0.493-1.1
				c-0.087-0.554-0.446-0.948-0.807-0.89C240.842,165.953,240.623,166.441,240.71,166.987z"/>
			<path style="fill:#263238;" d="M246.928,166.02c0.088,0.546,0.446,0.948,0.807,0.89c0.361-0.059,0.58-0.547,0.493-1.093
				c-0.088-0.546-0.445-0.956-0.807-0.898C247.061,164.978,246.841,165.466,246.928,166.02z"/>
			<path style="fill:#A02724;" d="M244.653,166.588c0.92,1.578,2.053,3.022,3.368,4.29c-0.857,1.063-2.557,0.909-2.557,0.909
				L244.653,166.588z"/>
			<path style="fill:#263238;" d="M238.169,164.74c-0.056,0.008-0.112,0.005-0.166-0.01c-0.154-0.091-0.212-0.285-0.133-0.445
				c0.482-0.936,1.383-1.584,2.423-1.744c0.181-0.016,0.34,0.118,0.356,0.299c0.016,0.181-0.118,0.34-0.299,0.356l0,0
				c-0.822,0.135-1.53,0.656-1.902,1.4C238.385,164.689,238.28,164.743,238.169,164.74z"/>
			<path style="fill:#263238;" d="M248.957,163.132c-0.111,0.004-0.217-0.05-0.278-0.143c-0.452-0.692-1.206-1.128-2.031-1.175
				c-0.18,0.005-0.33-0.137-0.335-0.318c-0.005-0.18,0.137-0.33,0.318-0.335c1.056,0.036,2.029,0.582,2.611,1.463
				c0.102,0.143,0.069,0.341-0.074,0.443c-0.003,0.002-0.005,0.004-0.008,0.006C249.101,163.115,249.029,163.137,248.957,163.132z"
				/>
			<path style="fill:#263238;" d="M251.769,173.311c-0.586-0.206-0.901,1.335-2.469-0.279c-1.567-1.614-3.675-0.569-3.675-0.569
				c-1.407-0.939-3.362,0.135-4.975,0.557c-1.73,0.452-2.366,0.306-3.07,0c-2.744-1.19-2.848-1.294-3.229-2.192
				c-0.993-2.343-2.794-7.62-1.375-10.086c0,0,10.946-3.822,4.99-8.447c-1.498-1.164-11.258-5.255-5.943,1.579
				c0,0-8.721,0.488-3.864,2.912c0,0-6.533,2.493-2.301,4.811c0,0-3.392,3.251,3.726,9.206l2.728,0.38l0.608,0.153l-0.991,3.741
				c0.423,3.086,4.028,5.788,4.028,5.788c0.988,1.946,2.098,1.217,2.098,1.217c1.471,1.881,3.037,0.49,3.037,0.49
				c1.234,2.418,3.227-0.49,3.227-0.49c0.474,1.833,3.26-2.071,3.26-2.071c0.793,1.471,2.622-4.65,2.622-4.65
				C251.621,175.072,252.377,173.525,251.769,173.311z"/>
			<path style="fill:#B55B52;" d="M227.507,173.503c1.135,1.295,2.734,2.09,4.451,2.214c2.282,0.133,2.948-2.015,1.913-3.92
				c-0.927-1.708-3.235-3.845-5.33-3.092C226.446,169.458,226.13,171.889,227.507,173.503z"/>
			<g>
				<path style="fill:#263238;" d="M247.589,174.005c0,0-1.77-0.315-6.664-0.181c0.647,1.315,1.782,2.366,4.293,2.281
					C247.728,176.02,247.589,174.005,247.589,174.005z"/>
				<path style="fill:#FF5652;" d="M243.992,175.092c0.959-0.081,1.921,0.115,2.772,0.566c-0.461,0.295-0.999,0.448-1.546,0.44
					c-0.957,0.082-1.918-0.114-2.765-0.566C242.911,175.238,243.447,175.085,243.992,175.092z"/>
				<path style="fill:#FFFFFF;" d="M247.36,173.973c-0.089,0.348-0.372,0.614-0.725,0.681c-1.453,0.039-2.907-0.033-4.35-0.215
					c-0.458-0.012-0.883-0.243-1.142-0.621C243.217,173.727,245.294,173.779,247.36,173.973z"/>
			</g>
		</g>
		<g>
			<g>
				<polygon style="fill:#407BFF;" points="230.616,195.675 233.373,204.653 239.78,213.914 245.037,219.381 247.007,211.364 
					246.373,194.635 246.273,191.031 244.8,188.959 242.463,191.009 240.471,191.777 237.556,191.802 229.898,189.473 				"/>
				<polygon style="opacity:0.8;fill:#FFFFFF;" points="230.616,195.675 233.373,204.653 239.78,213.914 245.037,219.381 
					247.007,211.364 246.373,194.635 246.273,191.031 244.8,188.959 242.463,191.009 240.471,191.777 237.556,191.802 
					229.898,189.473 				"/>
			</g>
			<path style="fill:#407BFF;" d="M236.798,194.635c0,0,0.93,2.058,2.982,3.811c0,0-1.284,9.153,0.69,15.562l4.566,5.373
				l1.336-6.645c0,0-2.044-10.634-4.788-14.657c0,0,1.142-2.161,1.519-4.38l-1.638-1.345c0,0-2.273,1.624-3.64,0.493
				L236.798,194.635z"/>
			<g>
				<path style="fill:#407BFF;" d="M230.436,187.768c0,0,4.226,3.601,8.471,3.601c4.245,0,4.716-4.43,4.716-4.43l1.79,1.935
					c0,0,0.284,3.146-1.46,6.458l-4.43-2.989l-3.002,4.321c0,0-4.696-2.262-6.997-6.315L230.436,187.768z"/>
				<path style="opacity:0.5;fill:#FFFFFF;" d="M230.436,187.768c0,0,4.226,3.601,8.471,3.601c4.245,0,4.716-4.43,4.716-4.43
					l1.79,1.935c0,0,0.284,3.146-1.46,6.458l-4.43-2.989l-3.002,4.321c0,0-4.696-2.262-6.997-6.315L230.436,187.768z"/>
			</g>
			<g>
				<path style="fill:#263238;" d="M231.204,186.939c0,0-3.466,10.683,13.596,31.059c0,0,3.063-24.962-2.309-31.843l3.733,1.476
					l3.885,5.872l-2.847,1.829l3.521,1.57c0,0-0.501,8.09-5.456,23.65c0,0-11.217-8.673-18.549-20.38l3.413-2.721l-4.562-0.72
					l2.028-8.106L231.204,186.939z"/>
				<path style="opacity:0.3;" d="M231.204,186.939c0,0-3.466,10.683,13.596,31.059c0,0,3.063-24.962-2.309-31.843l3.733,1.476
					l3.885,5.872l-2.847,1.829l3.521,1.57c0,0-0.501,8.09-5.456,23.65c0,0-11.217-8.673-18.549-20.38l3.413-2.721l-4.562-0.72
					l2.028-8.106L231.204,186.939z"/>
			</g>
		</g>
	</g>
</g>
<g id="Character_3">
	<g>
		<g>
			<g>
				<path style="fill:#407BFF;" d="M327.57,156.973c0,0-6.21-6.605-2.453-7.967c3.758-1.363,5.639-5.556,6.9-2.726
					c1.261,2.831,0.16,7.548,1.13,7.758c0.97,0.21-0.631-9.26,1.952-8.719c2.582,0.541,2.852,1.485,6.701,2.323
					c3.849,0.839-4.643,7.273-3.699,8.144c0.944,0.872,7.024-6.257,7.443-3.112c0.419,3.145,3.774,4.718,2.306,6.081
					c-1.468,1.363-9.116,1.741-9.116,1.741l-8.732-3.816L327.57,156.973z"/>
				<path style="opacity:0.1;" d="M327.578,154.591c-1.251,0.398-2.771-1.675-3.386-2.618c0.85,2.303,3.378,5,3.378,5l2.433-0.292
					l8.732,3.816c0,0,3.283-0.165,5.961-0.661c-2.75,0.269-5.151-1.124-2.572-1.444c2.582-0.32,2.412-1.316,1.662-2.808
					c-0.75-1.492-3.051,1.785-3.648,0.981c-0.593-0.797,2.281-3.471,2.329-3.515c-1.816,1.319-3.852,3.213-4.366,2.738
					c-0.568-0.525,2.284-3.067,3.803-5.19c-0.012,0.016-0.021,0.025-0.033,0.042c-1.349,1.896-4.133,3.586-4.937,2.928
					c-0.804-0.658,0.95-1.9,1.613-3.228c0.662-1.327-0.736-1.816-2.409-2.474c-1.674-0.658,0.066,4.824-1.396,4.605
					c-1.458-0.219-1.044-5.313-1.042-5.337c-0.435,2.606,0.115,7.048-0.552,6.904c-0.84-0.182-0.13-3.74-0.742-6.529
					c0.006,0.09,0.319,5.626-1.368,6.059c-1.701,0.436-1.924-4.532-3.925-2.851C325.11,152.398,329.186,154.079,327.578,154.591z"/>
			</g>
			<path style="fill:#71403E;" d="M339.499,188.66c0,0-0.952,0.359-1.231-0.664c-1.265-4.643,0.299-11.647,1.329-15.687
				l-11.436,8.005c0.604,2.686,0.812,5.975-0.745,8.253c-0.481,0.704-1.213,1.033-2.061,1.113l-1.139,0.106
				c0,0-0.299,5.117,6.426,5.117C337.366,194.903,339.499,188.66,339.499,188.66z"/>
			<path style="opacity:0.2;" d="M328.531,185.289c7.849,1.451,10.173-9.128,10.173-9.128l-0.158-1.054l-1.369,0.828l-8.863,5.151
				C328.567,182.444,328.687,183.903,328.531,185.289z"/>
			<path style="fill:#71403E;" d="M341.124,167.547c-1.537,6.431-2.115,10.276-5.983,13.003c-5.818,4.111-13.321-0.346-13.735-7.123
				c-0.374-6.102,2.206-15.589,9.022-17.013c4.928-1.024,9.753,2.141,10.777,7.068C341.485,164.826,341.457,166.215,341.124,167.547
				z"/>
			<path style="fill:#561616;" d="M327.111,165.811c0,0-1.741,2.836-3.323,4.06c0.783,1.049,2.444,0.941,2.444,0.941
				L327.111,165.811z"/>
			<path style="fill:#2E353A;" d="M333.264,164.974c0.046,0.012,0.095,0.012,0.141,0c0.144-0.071,0.202-0.245,0.131-0.389
				c-0.002-0.004-0.004-0.008-0.006-0.011c-0.42-0.853-1.237-1.441-2.179-1.568c-0.16-0.013-0.299,0.105-0.313,0.265
				c0,0.003,0,0.006-0.001,0.009c-0.013,0.16,0.105,0.3,0.265,0.313c0.003,0,0.006,0.001,0.009,0.001
				c0.73,0.105,1.365,0.558,1.701,1.215C333.057,164.909,333.155,164.974,333.264,164.974z"/>
			<path style="fill:#2E353A;" d="M323.513,163.548c0.097,0.003,0.189-0.045,0.243-0.125c0.422-0.639,1.118-1.044,1.881-1.097
				c0.162-0.027,0.272-0.18,0.246-0.342c-0.021-0.126-0.12-0.225-0.246-0.246l0,0c-0.952,0.053-1.824,0.553-2.351,1.348
				c-0.093,0.13-0.064,0.311,0.067,0.405c0.001,0.001,0.003,0.002,0.004,0.003C323.401,163.528,323.457,163.547,323.513,163.548z"/>
			<path style="fill:#71403E;" d="M343.086,174.482c-1.03,1.301-2.536,2.138-4.185,2.325c-2.189,0.232-2.938-1.82-2.042-3.697
				c0.811-1.701,2.926-3.851,4.99-3.21C343.914,170.541,344.328,172.877,343.086,174.482z"/>
			<g>
				<path style="fill:#407BFF;" d="M329.486,155.98c0,0,1.352-1.16,2.816-0.396c0,0,0.586-0.847,2.865,0.396
					c2.279,1.243,6.957,4.059,7.03,5.757c0,0,1.364,1.731-0.049,2.884c0,0-5.094-1.844-6.981-3.452
					c-1.887-1.608-4.738-4.755-4.738-4.755L329.486,155.98z"/>
				<path style="opacity:0.2;" d="M329.486,155.98c0,0,1.352-1.16,2.816-0.396c0,0,0.586-0.847,2.865,0.396
					c2.279,1.243,6.957,4.059,7.03,5.757c0,0,1.364,1.731-0.049,2.884c0,0-5.094-1.844-6.981-3.452
					c-1.887-1.608-4.738-4.755-4.738-4.755L329.486,155.98z"/>
			</g>
			<path style="fill:#407BFF;" d="M340.353,170.816c0,0-7.8-6.528-9.873-13.058c0,0-2.439-1.267-6.857,4.553
				c0,0-0.543-3.188,1.389-4.065c0,0,0.675-2.436,3.156-2.632c2.48-0.195,3.594,0.608,3.594,0.608l10.386,8.399
				c0,0,1.267,1.519,0,3.273C342.148,167.895,343.431,170.035,340.353,170.816z"/>
			<path style="opacity:0.1;" d="M331.667,158.197c0,0,5.217,7.491,9.457,9.35C341.124,167.547,335.172,160.098,331.667,158.197z"/>
			<g>
				<path style="fill:#263238;" d="M326.207,172.109c0,0,2.243-1.507,5.032-0.096c2.789,1.411,4.632-0.254,4.632-0.254
					s-0.639,2.348-2.739,2.153c0,0,0,6.908-1.748,4.91c0,0-0.904,4.288-2.282,1.806c0,0-0.491,3.366-1.991-0.661
					c0,0-0.933,2.304-1.661-2.01c0,0-1.045,3.28-1.54-3.516c0,0-1.138,0.461-1.576-1.136c0,0,1.414,0.337,1.858-0.996
					S326.207,172.109,326.207,172.109z"/>
				<path style="opacity:0.4;fill:#FFFFFF;" d="M326.207,172.109c0,0,2.243-1.507,5.032-0.096c2.789,1.411,4.632-0.254,4.632-0.254
					s-0.639,2.348-2.739,2.153c0,0,0,6.908-1.748,4.91c0,0-0.904,4.288-2.282,1.806c0,0-0.491,3.366-1.991-0.661
					c0,0-0.933,2.304-1.661-2.01c0,0-1.045,3.28-1.54-3.516c0,0-1.138,0.461-1.576-1.136c0,0,1.414,0.337,1.858-0.996
					S326.207,172.109,326.207,172.109z"/>
			</g>
			<g>
				<path style="fill:#263238;" d="M324.87,174.134c0,0,1.831-0.325,6.891-0.188c-0.669,1.36-1.843,2.446-4.438,2.359
					C324.726,176.217,324.87,174.134,324.87,174.134z"/>
				<path style="fill:#FF5652;" d="M328.589,175.258c-0.992-0.084-1.987,0.119-2.866,0.585c0.477,0.305,1.033,0.463,1.599,0.455
					c0.99,0.085,1.983-0.118,2.859-0.585C329.707,175.409,329.153,175.251,328.589,175.258z"/>
				<path style="fill:#FFFFFF;" d="M325.106,174.101c0.092,0.36,0.384,0.635,0.75,0.704c1.503,0.04,3.006-0.034,4.498-0.223
					c0.474-0.012,0.913-0.251,1.181-0.642C329.391,173.847,327.243,173.9,325.106,174.101z"/>
			</g>
			<g>
				<path style="fill:#2E353A;" d="M331.218,166.55c-0.078,0.494-0.415,0.854-0.737,0.784c-0.321-0.071-0.517-0.478-0.439-0.972
					c0.078-0.494,0.415-0.862,0.745-0.784C331.116,165.656,331.305,166.056,331.218,166.55z"/>
				<path style="fill:#2E353A;" d="M325.598,165.797c-0.078,0.494-0.408,0.854-0.737,0.784c-0.329-0.07-0.517-0.478-0.439-0.98
					c0.078-0.502,0.415-0.854,0.745-0.784C325.496,164.888,325.685,165.296,325.598,165.797z"/>
				<g>
					<path style="fill:#407BFF;" d="M328.142,164.599c-0.17-0.162-0.371-0.293-0.618-0.337c-0.248-0.044-0.482,0.01-0.697,0.104
						l-5.139-0.91l-0.329,1.858c-0.252,1.422,0.7,2.782,2.121,3.034c1.422,0.252,2.782-0.7,3.034-2.121l0.153-0.864l0.002,0
						c0.062-0.352,0.4-0.588,0.753-0.526c0.352,0.062,0.588,0.4,0.526,0.752l0.002,0l-0.153,0.864
						c-0.252,1.421,0.7,2.782,2.121,3.034c1.422,0.252,2.782-0.7,3.034-2.121l0.329-1.858L328.142,164.599z M325.938,166.125
						c-0.195,1.104-1.252,1.843-2.356,1.647c-1.104-0.195-1.843-1.252-1.647-2.356l0.227-1.282l4.004,0.709L325.938,166.125z
						 M332.376,167.265c-0.196,1.104-1.253,1.843-2.356,1.647c-1.104-0.195-1.843-1.252-1.647-2.356l0.227-1.282l4.004,0.709
						L332.376,167.265z"/>
					<path style="opacity:0.6;fill:#FFFFFF;" d="M328.142,164.599c-0.17-0.162-0.371-0.293-0.618-0.337
						c-0.248-0.044-0.482,0.01-0.697,0.104l-5.139-0.91l-0.329,1.858c-0.252,1.422,0.7,2.782,2.121,3.034
						c1.422,0.252,2.782-0.7,3.034-2.121l0.153-0.864l0.002,0c0.062-0.352,0.4-0.588,0.753-0.526c0.352,0.062,0.588,0.4,0.526,0.752
						l0.002,0l-0.153,0.864c-0.252,1.421,0.7,2.782,2.121,3.034c1.422,0.252,2.782-0.7,3.034-2.121l0.329-1.858L328.142,164.599z
						 M325.938,166.125c-0.195,1.104-1.252,1.843-2.356,1.647c-1.104-0.195-1.843-1.252-1.647-2.356l0.227-1.282l4.004,0.709
						L325.938,166.125z M332.376,167.265c-0.196,1.104-1.253,1.843-2.356,1.647c-1.104-0.195-1.843-1.252-1.647-2.356l0.227-1.282
						l4.004,0.709L332.376,167.265z"/>
				</g>
				<path style="fill:#407BFF;" d="M337.342,167.96l-4.192-2.389l-0.29,0.508l6.089,3.471
					C338.487,169.114,337.94,168.577,337.342,167.96z"/>
				<path style="opacity:0.6;fill:#FFFFFF;" d="M337.342,167.96l-4.192-2.389l-0.29,0.508l6.089,3.471
					C338.487,169.114,337.94,168.577,337.342,167.96z"/>
			</g>
		</g>
		<g>
			<path style="fill:#71403E;" d="M298.699,251.666l-2.526,5.408c0,0-2.472,1.849-3.135,2.627c-0.691,0.812-2.274,2.6-2.185,3.663
				c0.095,1.147,1.877,3.183,2.981,3.511c1.445,0.429,4.815-0.561,5.776-1.721c1.021-1.234,0.651-6.374,0.651-6.374l2.803-5.414
				L298.699,251.666z"/>
			<g>
				<polygon style="fill:#407BFF;" points="298.991,248.613 296.401,254.847 301.915,257.487 305.032,251.296 				"/>
				<polygon style="opacity:0.8;fill:#FFFFFF;" points="298.991,248.613 296.401,254.847 301.915,257.487 305.032,251.296 				"/>
			</g>
			<path style="fill:#263238;" d="M303.404,255.469c0,0,7.719-12.561,11.743-30.758c4.024-18.197,8.793-36.686,2.784-35.467
				c-10.984,2.229-11.162,29.023-13.053,38.398c-1.891,9.375-8.028,24.762-8.028,24.762L303.404,255.469z"/>
			<path style="opacity:0.2;" d="M303.404,255.469c0,0,7.719-12.561,11.743-30.758c4.024-18.197,9.788-36.369,3.688-35.751
				c-11.888,1.204-12.066,29.308-13.957,38.682c-1.891,9.375-8.028,24.762-8.028,24.762L303.404,255.469z"/>
		</g>
		<g>
			<g>
				<polygon style="fill:#71403E;" points="303.06,390.622 302.508,404.625 308.729,404.625 311.314,391.119 				"/>
				<path style="fill:#263238;" d="M302.209,403.86l7.637-0.01c0.331,0.005,0.581,0.24,0.602,0.565l1.587,7.341
					c0.045,0.636-0.45,1.261-1.105,1.396c-0.084,0.017-0.169,0.026-0.252,0.026c-3.153-0.109-5.938-0.331-9.875-0.393
					c-4.646-0.078-3.555,0.499-9.03,0.483c-3.298-0.013-3.306-3.773-1.882-3.934c6.514-0.697,7.484-2.618,10.311-4.868
					C300.807,404.036,301.521,403.82,302.209,403.86z"/>
				<path style="fill:#407BFF;" d="M307.169,261.491l-5.656,138.908l9.22,0.454c0,0,7.905-31.741,8.918-51.815
					c0.07-1.385,0.106-2.711,0.103-3.964c-0.014-5.86,0.4-11.698,1.426-17.431c0,0,0.268-1.5,0.358-1.999
					c1.26-7.039,5.04-28.157,5.04-28.157s8.598-15.29,2.675-36.635L307.169,261.491z"/>
				<path style="opacity:0.2;" d="M323.915,312.364c-3.593-15.357-2.699-33.577-2.699-33.577l4.585,1.813l3.347,8.477
					c0,0,0.014,0.679,0.03,1.81c-1.259,4.203-2.6,6.597-2.6,6.597L323.915,312.364z"/>
				<g>
					<polygon style="fill:#407BFF;" points="301.142,398.319 301.048,401.572 310.827,402.156 311.708,398.953 					"/>
					<polygon style="opacity:0.4;fill:#FFFFFF;" points="301.142,398.319 301.048,401.572 310.827,402.156 311.708,398.953 					"/>
				</g>
			</g>
			<g>
				<polygon style="fill:#71403E;" points="342.168,390.622 344.211,404.625 350.432,404.625 350.405,391.119 				"/>
				<path style="fill:#263238;" d="M343.69,403.86l7.637-0.01c0.33,0.005,0.572,0.24,0.582,0.565l1.331,7.341
					c0.023,0.636-0.494,1.261-1.154,1.396c-0.085,0.017-0.17,0.026-0.253,0.026c-3.15-0.109-5.926-0.331-9.862-0.393
					c-4.643-0.078-3.573,0.499-9.047,0.483c-3.297-0.013-3.174-3.773-1.744-3.934c6.539-0.697,7.575-2.618,10.481-4.868
					C342.282,404.036,343.004,403.82,343.69,403.86z"/>
				<path style="fill:#407BFF;" d="M317.278,261.491c0,0,7.521,34.327,9.675,45.839c4.338,23.18,15.215,93.094,15.215,93.094
					l9.171-0.4c0,0,2.102-29.001-0.656-49.303c-0.218-1.602-0.465-3.141-0.746-4.597c-1.307-6.779-2.043-13.655-1.97-20.557
					c0,0,0.019-1.49,0.021-1.987c0.023-6.524-0.071-19.58,0.276-26.095c0.489-9.184,1.904-19.806-3.372-36.635L317.278,261.491z"/>
				<g>
					<polygon style="fill:#407BFF;" points="341.407,398.959 341.921,402.193 351.661,401.609 351.841,398.336 					"/>
					<polygon style="opacity:0.4;fill:#FFFFFF;" points="341.407,398.959 341.921,402.193 351.661,401.609 351.841,398.336 					"/>
				</g>
			</g>
		</g>
		<g>
			<path style="fill:#407BFF;" d="M308.237,260.168c0,0,5.122,5.509,12.88,1.439c0,0,4.19,3.147,16.568,0.03l6.5-71.273v-1.245
				h-4.851l-8.633,1.781l-4.491-2.074l-2.807-0.559l-9.619,13.709L308.6,250.25L308.237,260.168z"/>
			<path style="opacity:0.8;fill:#FFFFFF;" d="M308.237,260.168c0,0,5.122,5.509,12.88,1.439c0,0,4.19,3.147,16.568,0.03l6.5-71.273
				v-1.245h-4.851l-8.633,1.781l-4.491-2.074l-2.807-0.559l-9.619,13.709L308.6,250.25L308.237,260.168z"/>
			<path style="fill:#407BFF;" d="M327.193,192.601l0.642,2.762l0.74,2.303c0,0-8.801,17.422-9.367,50.999l2.607,2.661l4.746-2.947
				c0,0-0.351-19.204,4.068-50.343l1.196-1.372l1.923-2.769l-0.55-1.61c0,0-2.14,1.852-4.279-0.487L327.193,192.601z"/>
			<path style="opacity:0.8;fill:#FFFFFF;" d="M322.86,215.71c-0.046,0.207-0.09,0.423-0.136,0.634l5.601,0.697
				c0.022-0.214,0.043-0.427,0.064-0.643L322.86,215.71z"/>
		</g>
		<path style="fill:#263238;" d="M303.543,277.234c0,0,11.9,11.588,10.745-26.38c-1.527-50.193,11.171-63.1,11.171-63.1
			s-22.174-3.707-19.922,48.711C305.989,246.982,307.169,261.491,303.543,277.234z"/>
		<path style="fill:#263238;" d="M340.712,187.447c0,0-6.875,19.756-5.966,51.941c0.754,26.702-1.074,39.716,18.078,38.05
			c0,0-3.93-14.882-2.946-35.316C350.863,221.688,366.445,185.026,340.712,187.447z"/>
		<path style="opacity:0.2;" d="M352.037,193.862c-1.116-1.507-3.535-1.21-4.637,0.462c-2.317,3.518-6.09,8.07-8.673,28.458
			l-3.782,0.211c-0.075,2.977-0.204,12.761-0.176,14.153c2.333-0.265,7.196-1.093,8.79-1.552
			C350.669,233.548,357.507,201.253,352.037,193.862z"/>
		<g>
			<g>
				<path style="fill:#263238;" d="M305.396,253.939h5.207c0,0,0.71,3.449-6.213,3.052L305.396,253.939z"/>
				<path style="fill:#263238;" d="M337.685,253.939l8.779-1.051c0,0,1.415,3-3.702,3.459
					C337.646,256.806,337.685,253.939,337.685,253.939z"/>
			</g>
			<g style="opacity:0.1;">
				<path style="fill:#FFFFFF;" d="M305.396,253.939h5.207c0,0,0.71,3.449-6.213,3.052L305.396,253.939z"/>
				<path style="fill:#FFFFFF;" d="M337.685,253.939l8.779-1.051c0,0,1.415,3-3.702,3.459
					C337.646,256.806,337.685,253.939,337.685,253.939z"/>
			</g>
		</g>
		<polygon style="fill:#407BFF;" points="325.46,187.755 326.867,187.365 330.655,189.909 339.541,187.318 340.712,187.447 
			341.456,189.909 333.197,195.628 330.655,191.932 326.867,194.285 324.041,188.41 		"/>
		<polygon style="opacity:0.5;fill:#FFFFFF;" points="325.46,187.755 326.867,187.365 330.655,189.909 339.541,187.318 
			340.712,187.447 341.456,189.909 333.197,195.628 330.655,191.932 326.867,194.285 324.041,188.41 		"/>
		<g>
			<path style="fill:#263238;" d="M340.712,187.447c0,0-5.151,14.82-5.944,39.687c3.838-17.587,9.416-25.443,9.416-25.443
				l-3.945-2.436l3.945-2.826c-1.302-2.85-1.201-7.333-1.102-9.092C342.334,187.335,341.547,187.369,340.712,187.447z"/>
			<path style="opacity:0.1;fill:#FFFFFF;" d="M340.712,187.447c0,0-5.151,14.82-5.944,39.687
				c3.838-17.587,9.416-25.443,9.416-25.443l-3.945-2.436l3.945-2.826c-1.302-2.85-1.201-7.333-1.102-9.092
				C342.334,187.335,341.547,187.369,340.712,187.447z"/>
		</g>
		<g>
			<path style="fill:#71403E;" d="M313.468,229.633l-5.698,0.288c0,0-2.668-1.26-3.622-1.471c-0.995-0.221-3.214-0.756-4.072-0.205
				c-0.926,0.594-1.848,3.01-1.63,4.089c0.285,1.412,2.629,3.815,4.04,4.107c1.5,0.31,5.674-2.305,5.674-2.305l5.827-0.057
				L313.468,229.633z"/>
			<g>
				<polygon style="fill:#407BFF;" points="318.253,227.963 311.092,228.798 312.113,234.692 318.835,234.692 				"/>
				<polygon style="opacity:0.8;fill:#FFFFFF;" points="318.253,227.963 311.092,228.798 312.113,234.692 318.835,234.692 				"/>
			</g>
			<path style="fill:#263238;" d="M348.074,191.544c-2.222,3.373-5.84,13.362-8.317,32.91l-25.107,3.066l0.452,7.914
				c0,0,20.213,0.495,28.004-1.749c6.817-1.963,14.658-35.499,9.413-42.586C351.451,189.656,349.13,189.941,348.074,191.544z"/>
		</g>
		<g>
			<g>
				<rect x="306.947" y="206.195" style="fill:#407BFF;" width="7.352" height="4.442"/>
				<rect x="306.947" y="207.643" style="opacity:0.4;fill:#FFFFFF;" width="7.352" height="2.995"/>
				<rect x="306.947" y="209.015" style="opacity:0.4;fill:#263238;" width="7.352" height="1.622"/>
			</g>
			<path style="opacity:0.4;fill:#FFFFFF;" d="M311.222,208.416c0,0.331-0.268,0.599-0.599,0.599c-0.331,0-0.599-0.268-0.599-0.599
				c0-0.331,0.268-0.599,0.599-0.599C310.954,207.818,311.222,208.086,311.222,208.416z"/>
		</g>
		<g>
			<path style="fill:#263238;" d="M322.875,187.807c-2.023,1.095-4.306,3.335-6.475,6.799l1.267,3.188l-4.506,1.559
				c0,0-0.888,13.136,1.575,27.29c2.299-30.314,10.725-38.887,10.725-38.887S324.451,187.595,322.875,187.807z"/>
			<path style="opacity:0.1;fill:#FFFFFF;" d="M322.875,187.807c-2.023,1.095-4.306,3.335-6.475,6.799l1.267,3.188l-4.506,1.559
				c0,0-0.888,13.136,1.575,27.29c2.299-30.314,10.725-38.887,10.725-38.887S324.451,187.595,322.875,187.807z"/>
		</g>
	</g>
</g>
<g id="Character_1">
	<g>
		<path style="fill:#407BFF;" d="M160.963,200.701c0,0,3.698-1.111,9.074,0.55c0,0,1.738,4.214-2.016,4.4
			c-3.755,0.186-7.103-3.616-7.103-3.616L160.963,200.701z"/>
		<g>
			<path style="fill:#263238;" d="M156.095,175.41c0,0,10.349-11.903,18.334-4.096c0,0,6.211,5.717,4.953,11.629
				c-1.257,5.912-7.171,3.602-3.142,14.161c0,0-2.668,5.307-15.157,1.251l-3.25-5.211l1.713,5.211c0,0-7.544-0.885-7.484-8.403
				C152.12,182.435,148.831,175.327,156.095,175.41z"/>
			<path style="fill:#FFB573;" d="M160.069,203.138c0,0,2.398-0.091,2.38-3.058c-0.018-2.966-0.512-6.573-0.512-6.573l7.126,0.631
				c0,0-0.953,8.756,2.307,9.203C171.37,203.342,168.522,207.706,160.069,203.138z"/>
			<path style="opacity:0.1;" d="M169.063,194.139l-7.126-0.631c0,0,0.18,1.32,0.327,3.017c1.116,1.475,3.203,3.248,6.98,3.863
				C168.68,197.692,169.063,194.139,169.063,194.139z"/>
			<path style="fill:#FFB573;" d="M157.371,183.944c0.949,6.385,1.21,9.108,4.734,12.122c5.302,4.537,12.934,1.98,13.918-4.56
				c0.884-5.886-0.811-15.332-7.309-17.347c-4.636-1.464-9.581,1.108-11.044,5.744C157.257,181.208,157.155,182.592,157.371,183.944
				z"/>
			<path style="fill:#FFB573;" d="M156.29,189.15c0.459,1.161,1.36,2.092,2.506,2.588c1.523,0.645,2.495-0.665,2.249-2.214
				c-0.22-1.389-1.28-3.405-2.896-3.396c-1.176,0.043-2.095,1.032-2.052,2.208C156.107,188.619,156.173,188.895,156.29,189.15z"/>
			<path style="fill:#ED893E;" d="M171.668,185.422c0.567,1.153,1.29,2.223,2.148,3.178c-0.503,0.434-1.173,0.623-1.829,0.516
				L171.668,185.422z"/>
			<path style="fill:#263238;" d="M164.645,182.513c-0.044-0.007-0.086-0.023-0.123-0.049c-0.113-0.085-0.135-0.246-0.049-0.359
				c0.001-0.001,0.002-0.003,0.003-0.004c0.571-0.79,1.49-1.253,2.465-1.24c0.139,0.015,0.242,0.136,0.234,0.276
				c-0.011,0.138-0.13,0.243-0.269,0.235c-0.805,0.002-1.559,0.391-2.029,1.044C164.822,182.487,164.734,182.524,164.645,182.513z"
				/>
			<path style="fill:#263238;" d="M175.731,181.647c-0.044-0.007-0.087-0.023-0.123-0.049c-0.64-0.482-1.471-0.628-2.237-0.394
				c-0.131,0.053-0.28-0.01-0.333-0.141c-0.001-0.001-0.001-0.002-0.001-0.003c-0.048-0.134,0.018-0.281,0.151-0.334
				c0.928-0.297,1.942-0.128,2.723,0.454c0.118,0.078,0.151,0.236,0.073,0.354C175.929,181.619,175.83,181.662,175.731,181.647
				L175.731,181.647z"/>
			<g>
				<path style="fill:#263238;" d="M167.904,184.876c0.044,0.519,0.357,0.918,0.703,0.891c0.346-0.027,0.58-0.473,0.531-1
					c-0.05-0.527-0.357-0.918-0.696-0.89C168.103,183.904,167.861,184.35,167.904,184.876z"/>
				<path style="fill:#263238;" d="M173.813,184.369c0.044,0.519,0.357,0.918,0.696,0.891c0.339-0.027,0.58-0.473,0.538-0.999
					c-0.043-0.526-0.357-0.918-0.696-0.891C174.011,183.397,173.763,183.842,173.813,184.369z"/>
				<path style="fill:#263238;" d="M174.203,183.411l1.223-0.467C175.426,182.943,174.863,183.976,174.203,183.411z"/>
				<path style="fill:#263238;" d="M168.294,183.918l1.223-0.467C169.517,183.451,168.955,184.483,168.294,183.918z"/>
			</g>
			<path style="fill:#263238;" d="M170.748,192.162c0.302,0.001,0.603-0.025,0.901-0.079c0.086-0.014,0.144-0.095,0.13-0.181
				c0-0.002-0.001-0.003-0.001-0.005c-0.014-0.084-0.094-0.142-0.179-0.129c-1.331,0.261-2.707-0.124-3.71-1.036
				c-0.059-0.065-0.16-0.07-0.225-0.011c-0.065,0.059-0.07,0.16-0.011,0.225C168.488,191.737,169.598,192.173,170.748,192.162z"/>
			<path style="fill:#263238;" d="M159.545,174.775c0,0,4.639,1.996,3.896,6.657c0,0,4.599-2.898,9.579-1.284
				c0,0-0.689-2.829-2.98-4.531c0,0,5.605,4.183,6.434,6.899c0.829,2.716-0.191-9.399-7.953-9.737
				C168.522,172.778,163.485,170.552,159.545,174.775z"/>
			<path style="fill:#263238;" d="M162.41,175.825c0,0,0.825,2.142-0.289,6.266c-1.114,4.124-2.434,5.032,0,9.115
				c2.433,4.083-0.395,4.784-0.395,4.784s1.261-1.444-1.873-4.949c-3.135-3.506-2.482-7.098-2.482-7.098s-1.555-3.157,1.575-7.712
				C162.076,171.677,162.41,175.825,162.41,175.825z"/>
			<path style="fill:#263238;" d="M158.796,191.739c0,0,3.735,1.668,3.546,5.791l-2.295-2.343l-2.215-2.042L158.796,191.739z"/>
		</g>
		<path style="fill:#FFB573;" d="M190.549,307.08c-0.091,24.852-4.96,99.606-4.96,99.606h-7.083c0,0-5.735-64.24-0.492-85.169
			l-8.802-40.404l20.339,2.616C189.552,283.728,190.571,301.218,190.549,307.08z"/>
		<path style="fill:#263238;" d="M185.137,404.81l-6.864-0.009c-0.298,0.005-0.568,0.216-0.648,0.508l-2.822,6.6
			c-0.161,0.572,0.165,1.134,0.728,1.255c0.072,0.015,0.147,0.023,0.222,0.023c2.856-0.098,5.401-0.298,8.953-0.353
			c4.192-0.07,3.102,0.449,8.026,0.435c2.967-0.012,3.689-3.392,2.439-3.536c-5.724-0.626-6.231-2.354-8.345-4.376
			C186.363,404.968,185.762,404.773,185.137,404.81z"/>
		<path style="opacity:0.1;" d="M189.86,330.302h-13.242c-0.639,6.405-0.85,14.266-0.805,22.488
			c2.397-0.159,8.438-0.713,13.081-2.389C189.254,343.493,189.587,336.642,189.86,330.302z"/>
		<g>
			<path style="fill:#FFB573;" d="M164.557,308.858L152.2,406.974h-6.929c0,0-1.317-65.301,5.002-85.608l0.586-40.646l17.432,3.008
				L164.557,308.858z"/>
			<path style="fill:#263238;" d="M151.964,404.81l-6.864-0.009c-0.298,0.005-0.553,0.216-0.613,0.508l-2.36,6.6
				c-0.121,0.572,0.244,1.134,0.816,1.255c0.073,0.015,0.148,0.023,0.223,0.023c2.849-0.098,5.38-0.298,8.928-0.353
				c4.187-0.07,3.133,0.449,8.057,0.435c2.966-0.012,3.452-3.392,2.192-3.536c-5.768-0.626-6.396-2.354-8.651-4.376
				C153.202,404.968,152.587,404.773,151.964,404.81z"/>
			<path style="opacity:0.1;" d="M149.311,325.06c-1.406,6.338-2.348,15.204-2.974,24.784c3.048,0.877,8.179,2.087,12.811,1.956
				l3.021-23.984L149.311,325.06z"/>
		</g>
		<path style="fill:#FFB573;" d="M196.193,260.798c0.504,1.881,1.102,3.532,1.821,4.861l3.35,3.145l0.505,4.312l-5.744,1.225
			l-2.385-4.038l-0.236-3.326c0,0-0.862-1.584-1.994-4.567L196.193,260.798z"/>
		<path style="fill:#407BFF;" d="M191.126,263.525c-2.102-4.497-5.109-16.724-6.745-27.353c-2.687-17.46-5.784-30.351-2.067-29.061
			c0,0,5.229,7.064,7.292,18.2c1.702,9.193,4.044,27.188,7.085,35.883L191.126,263.525z"/>
		<path style="opacity:0.1;" d="M191.126,263.525c-2.102-4.497-5.109-16.724-6.745-27.353c-2.687-17.46-5.784-30.351-2.067-29.061
			c0,0,5.229,7.064,7.292,18.2c1.702,9.193,4.044,27.188,7.085,35.883L191.126,263.525z"/>
		<path style="opacity:0.1;" d="M181.31,217.271c0.737,5.014,1.939,11.549,3.071,18.901c0.457,2.97,1.023,6.061,1.645,9.076
			c0.228-2.811,0.721-7.097,1.804-12.559c2.016-10.174-4.39-22.152-4.39-22.152h-0.925l-1.1,2.171L181.31,217.271z"/>
		<polygon style="fill:#407BFF;" points="158.925,202.672 160.917,202.034 166.115,205.65 168.02,205.65 169.624,204.94 
			171.482,203.084 173.336,203.842 174.665,208.95 174.665,210.508 175.229,212.387 176.865,218.711 178.102,226.869 
			178.102,233.01 177.644,239.609 175.903,236.172 170.999,227.006 166.92,215.458 165.729,211.425 162.613,208.151 
			160.184,204.001 		"/>
		<polygon style="opacity:0.8;fill:#FFFFFF;" points="158.925,202.672 160.917,202.034 166.115,205.65 168.02,205.65 
			169.624,204.94 171.482,203.084 173.336,203.842 174.665,208.95 174.665,210.508 175.229,212.387 176.865,218.711 
			178.102,226.869 178.102,233.01 177.644,239.609 175.903,236.172 170.999,227.006 166.92,215.458 165.729,211.425 
			162.613,208.151 160.184,204.001 		"/>
		<path style="fill:#263238;" d="M151.031,268.089c0,0-2.973,8.94-4.085,34.07c-1.112,25.13-3.526,44.824-3.526,44.824
			s29.723,7.699,47.647,0c0,0,3.59-44.502-2.891-78.894l-12.947-4.564L151.031,268.089z"/>
		<path style="fill:#407BFF;" d="M149.982,207.758l6.215,43.674c0,0-3.849,6.599-7.149,20.21c0,0,19.153,6.364,24.747,3.575
			c1.79-0.892,3.85-7.012,3.85-7.012s3.221,6.478,5.362,7.012c1.761,0.439,6.599-3.025,6.599-3.025s-1.99-11.489-4.775-21.486
			l1.345-19.206c0,0,2.747-5.434-2.411-19.973l-1.45-4.416c-0.193-0.587-0.6-1.08-1.146-1.368c-1.468-0.774-4.748-2.308-9.229-3.255
			c0,0,7.012,19.585,5.362,35.952c0,0-6.874-27.153-17.857-36.406c0,0-4.076,0.281-7.844,2.439
			C150.441,205.137,149.794,206.436,149.982,207.758z"/>
		<path style="fill:#263238;" d="M166.35,206.613c0,0,1.533-2.154,4.787-1.1c0,0,0.508,2.154,0.346,4.491
			c0,0,3.045,4.255,6.62,20.344v3.12l-0.458,6.141l-1.741-3.437l-1.741-5.824c0,0-2.429-14.936-4.629-19.702L166.35,206.613z"/>
		<g>
			<path style="fill:#407BFF;" d="M159.443,202.034l1.519-1.333c0,0,4.124,4.516,6.874,4.366s2.2-3.816,2.2-3.816l1.901,1.237
				l0.848,0.779l-0.204,4.883c0,0-2.408-2.821-3.829-2.409c-1.421,0.413-2.638,3.437-2.638,3.437S162.92,207.4,159.443,202.034z"/>
			<path style="opacity:0.5;fill:#FFFFFF;" d="M159.443,202.034l1.519-1.333c0,0,4.124,4.516,6.874,4.366s2.2-3.816,2.2-3.816
				l1.901,1.237l0.848,0.779l-0.204,4.883c0,0-2.408-2.821-3.829-2.409c-1.421,0.413-2.638,3.437-2.638,3.437
				S162.92,207.4,159.443,202.034z"/>
			<path style="fill:#407BFF;" d="M177.781,240.48c0,0,1.421-8.524,1.146-27.313l-3.698-2.016l2.323-0.642
				c0,0-2.136-4.833-4.016-7.642c-0.516-0.132-1.044-0.26-1.598-0.378c0,0,7.012,19.585,5.362,35.952
				c0,0-6.874-27.153-17.857-36.406c0,0-0.518,0.037-1.348,0.179c1.393,1.465,4.093,4.962,4.156,10.128h2.952l-2.408,2.2
				L177.781,240.48z"/>
			<path style="opacity:0.2;" d="M177.781,240.48c0,0,1.421-8.524,1.146-27.313l-3.698-2.016l2.323-0.642
				c0,0-2.136-4.833-4.016-7.642c-0.516-0.132-1.044-0.26-1.598-0.378c0,0,7.012,19.585,5.362,35.952
				c0,0-6.874-27.153-17.857-36.406c0,0-0.518,0.037-1.348,0.179c1.393,1.465,4.093,4.962,4.156,10.128h2.952l-2.408,2.2
				L177.781,240.48z"/>
		</g>
		<path style="opacity:0.2;" d="M152.068,222.416c1.909-5.782,3.051-14.655,3.051-14.655l-3.769-1.652l-1.342,0.608
			c-0.063,0.338-0.076,0.689-0.026,1.042L152.068,222.416z"/>
		<g>
			
				<rect x="157.636" y="218.299" transform="matrix(0.9869 -0.1615 0.1615 0.9869 -33.4765 28.9082)" style="fill:#407BFF;" width="6.914" height="4.177"/>
			
				<rect x="157.636" y="218.299" transform="matrix(0.9869 -0.1615 0.1615 0.9869 -33.4765 28.9082)" style="opacity:0.7;fill:#FFFFFF;" width="6.914" height="4.177"/>
			<path style="fill:#407BFF;" d="M162.06,220.23c0.087,0.534-0.275,1.037-0.808,1.124c-0.534,0.087-1.037-0.275-1.124-0.808
				c-0.087-0.534,0.274-1.037,0.808-1.124C161.469,219.335,161.973,219.696,162.06,220.23z"/>
		</g>
		<path style="opacity:0.2;" d="M176.005,247.87c0.723-0.832,0-5.346,0-5.346l-20.937,0.982l0.731,5.14
			c2.621,0.189,7.666,0.343,11.939-0.776C167.739,247.87,175.284,248.702,176.005,247.87z"/>
		<g>
			<path style="fill:#FFB573;" d="M164.184,246.948c3.305-0.211,5.624-0.708,5.624-0.708l3.561,0.385h5.293v-6.352l-5.486-1.166
				l-4.018,2.129c0,0-2.082,0.378-4.908,0.405L164.184,246.948z"/>
			<path style="fill:#407BFF;" d="M164.762,247.405c-8.201,0.525-22.474-0.704-22.455-15.621
				c0.009-7.682,2.768-28.426,10.852-27.592c8.084,0.834-3.561,9.203-3.561,26.53c0,9.924,9.269,10.278,15.23,10.221
				L164.762,247.405z"/>
			<path style="opacity:0.1;" d="M164.762,247.405c-8.201,0.525-22.474-0.704-22.455-15.621c0.009-7.682,2.768-28.426,10.852-27.592
				c8.084,0.834-3.561,9.203-3.561,26.53c0,9.924,9.269,10.278,15.23,10.221L164.762,247.405z"/>
		</g>
	</g>
</g>
</svg>
