<?xml version="1.0" encoding="utf-8"?>
<!-- Generator: Adobe Illustrator 27.5.0, SVG Export Plug-In . SVG Version: 6.00 Build 0)  -->
<svg version="1.1" xmlns="http://www.w3.org/2000/svg" xmlns:xlink="http://www.w3.org/1999/xlink" x="0px" y="0px"
	 viewBox="0 0 1100 800" style="enable-background:new 0 0 1100 800;" xml:space="preserve">
<g id="background">
	<rect style="fill:#FFFFFF;" width="1100" height="800"/>
</g>
<g id="shadow">
	<g id="XMLID_1697_" style="opacity:0.2;">
		<path style="fill:#BCBEC0;" d="M846.364,540.539c33.201,1.905,66.519-1.052,99.663,2.451c16.302,1.723,33.088,4.693,47.689,11.758
			c5.386,2.606,14.744,6.67,15.97,12.579c1.316,6.344-5.674,8.591-6.246,14.293c-0.387,3.857,4.734,9.337,5.263,13.747
			c1.115,9.284-4.031,17.689-9.937,24.898c-11.074,13.52-4.155,24.947-9.474,41.635c-1.978,6.206-2.469,13.109-5.225,18.871
			c-15.386,32.169-213.107,29.629-264.039,29.979c-115.537,0.793-231.078-0.531-346.591-2.588
			c-34.376-0.612-68.775-1.637-103.17-2.366c-20.128-0.426-40.254-0.75-60.374-0.831c-30.196-0.12-64.952,6.463-93.503-8.593
			c-49.879-26.303,14.3-51.953,1.782-81.135c-0.004-0.009-0.008-0.018-0.012-0.027c-5.535-12.867-28.376-14.413-38.544-17.626
			c-4.688-1.482-9.643-3.155-12.924-7.443c-17.423-22.77,19.886-46.969,34.014-50.165c28.672-6.487,59.89-3.338,88.932-3.829
			C408.755,532.439,628.461,528.033,846.364,540.539z"/>
	</g>
</g>
<g id="object">
	<g>
		<g id="XMLID_1867_">
			<g id="XMLID_1872_">
				<g id="XMLID_1874_">
					<polygon style="fill:#F4C9C3;" points="617.099,298.387 606.102,294.676 607.483,289.907 615.576,290.781 615.183,288.222 
						624.207,292.544 623.44,297.695 					"/>
				</g>
				<g id="XMLID_1873_">
					<polygon style="fill:#474EBB;" points="702.175,254.766 671.662,288.081 619.558,288.882 619.456,299.229 681.181,311.919 
						724.362,274.847 					"/>
				</g>
			</g>
			<g id="XMLID_1871_">
				<path style="fill:#F4C9C3;" d="M731.793,235.147c1.285-2.618,1.487-5.687,1.102-8.598c-0.827-6.246-4.646-12.3-10.388-14.519
					c-8.831-3.413-18.787,2.775-27.966,0.548c-0.808,3.722-1.593,7.503-1.41,11.315c0.392,8.138,5.593,15.85,12.874,19.088
					c7.281,3.238,16.287,1.845,22.291-3.449C729.7,238.293,730.959,236.846,731.793,235.147z"/>
			</g>
			<g id="XMLID_1870_">
				<polygon style="fill:#0D1929;" points="696.42,215.77 725.721,217.128 727.652,240.003 736.836,234.911 738.619,198.303 
					698.214,190.696 678.945,198.079 677.974,208.525 691.919,221.701 				"/>
			</g>
			<g id="XMLID_1869_">
				<path style="fill:#474EBB;" d="M702.534,252.932l32.917-5.374c0,0,28.56,29.393,44.325,73.955
					c15.765,44.562-9.105,109.967-9.105,109.967s-90.585-12.733-105.439-14.706l23.345-92.516L702.534,252.932z"/>
			</g>
			<g id="XMLID_1868_">
				<path style="fill:#F4C9C3;" d="M721.876,241.622c0.898,2.626,2.116,5.142,3.619,7.475c-4.235,0.863-8.47,1.727-12.704,2.59
					c-0.612-2.983-1.225-5.966-1.838-8.948c3.159-0.214,6.319-0.427,9.478-0.64L721.876,241.622z"/>
			</g>
		</g>
		<g id="XMLID_1852_">
			<g id="XMLID_1866_">
				<path style="fill:none;" d="M455.703,186.879c-0.716,0.985-0.964,2.663-0.973,4.609
					C455.055,189.952,455.379,188.416,455.703,186.879z"/>
			</g>
			<g id="XMLID_1865_">
				<polygon style="fill:#756758;" points="393.373,526.242 392.745,528.236 390.662,534.853 401.812,545.637 410.513,541.103 
					405.979,532.403 405.488,531.927 405.023,532.643 				"/>
			</g>
			<g id="XMLID_1864_">
				<path style="fill:#3B455A;" d="M453.574,351.685c-6.221,1.178-12.563,2.86-18.108,6.026c-2.599,1.484-4.838,3.301-7.08,5.137
					l-0.489,74.716l-35.173,88.323l0.649,0.357l1.456-4.623l10.659,10.308l64.525-99.51l3.408-12.148l-11.663-69.98
					C459.017,350.694,456.286,351.156,453.574,351.685z"/>
			</g>
			<g id="XMLID_1863_">
				<polygon style="fill:#3B455A;" points="393.373,526.242 405.023,532.643 405.488,531.927 394.829,521.619 				"/>
			</g>
			<g id="XMLID_1862_">
				<path style="fill:#3B455A;" d="M479.227,399.575l-5.806,20.693l1.327,7.964l8.103,105.343h0.074v-1.527h12.979l16.463-112.64
					l-0.797-68.935c-3.01-0.314-16.651-1.689-26.164-1.89L479.227,399.575z"/>
			</g>
			<g id="XMLID_1861_">
				<path style="fill:#3B455A;" d="M485.408,348.584c-1.266-0.027-2.463-0.034-3.547-0.014c-6.714,0.125-13.442,0.734-20.102,1.719
					l11.663,69.98l5.806-20.693L485.408,348.584z"/>
			</g>
			<g id="XMLID_1860_">
				<polygon style="fill:#756758;" points="482.926,533.576 482.926,538.986 496.801,545.923 503.738,538.986 496.801,532.049 
					495.905,532.049 495.682,533.576 				"/>
			</g>
			<g id="XMLID_1859_">
				<polygon style="fill:#756758;" points="482.926,533.576 495.682,533.576 495.905,532.049 482.926,532.049 				"/>
			</g>
			<g id="XMLID_1858_">
				<path style="fill:#F4C9C3;" d="M472.608,215.492c0.495-1.814,1.004-3.575,2.562-4.487c1.415-0.829,3.212-0.589,4.761-1.127
					c2.918-1.014,4.174-4.365,5.068-7.322c0.777-2.57,1.554-5.141,2.331-7.711c0.35-1.158,0.698-2.351,0.925-3.55
					c-4.435-1.658-8.583-4.695-13.215-5.856c-5.196-1.302-14.684-3.226-19.071,1.124c-0.096,0.095-0.183,0.201-0.266,0.315
					c-0.324,1.536-0.648,3.073-0.973,4.609c-0.019,4.339,1.153,10.009,1.007,12.316c-0.631-0.21-1.245-0.497-1.844-0.834
					c1.352,2.191,4.183,3.557,6.724,4.557c-0.585,3.135-0.919,6.317-0.998,9.505c0.152,0.021,0.305,0.042,0.457,0.062
					c4.22-0.543,8.453-0.933,12.155-1.544C472.357,215.529,472.482,215.511,472.608,215.492z"/>
			</g>
			<g id="XMLID_1857_">
				<path style="fill:#3B455A;" d="M453.447,197.574c0.428-2.029,0.856-4.057,1.284-6.086c0.009-1.946,0.257-3.624,0.973-4.609
					c0.193-0.914,0.386-1.828,0.579-2.743c0.327-1.549,0.673-3.143,1.57-4.448c1.574-2.289,4.499-3.208,7.252-3.582
					c7.025-0.955,14.576,0.838,19.82,5.609c1.396,1.27,2.644,2.781,3.214,4.579c0.513,1.621,0.437,3.316,0.118,5.001
					c0.992,0.371,1.998,0.674,3.027,0.87c4.052,0.772,9.327-1.035,12.87-3.014c4.372-2.444,6.642-9.954,9.296-13.97
					c0.727-1.101,1.506-2.16,2.37-3.148c1.871-2.141,4.147-3.951,5.677-6.348c1.531-2.396,2.16-5.698,0.515-8.017
					c-1.062-1.497-2.845-2.291-4.585-2.874c-5.734-1.919-11.986-2.265-17.896-0.991c-5.63,1.214-10.708,3.381-16.245,1.078
					c-5.203-2.164-9.043-1.502-14.629,0.262c-6.045,1.909-14.073,2.116-19.584,4.923c-2.301,1.172-4.173,3.067-5.656,5.182
					c-5.136,7.327-5.544,17.675-1.001,25.384c1.019,1.729,2.257,3.321,3.562,4.846c2.257,2.636,4.882,5.781,7.917,7.49
					c-0.389-0.631-0.663-1.326-0.763-2.106C452.988,199.766,453.218,198.658,453.447,197.574z"/>
			</g>
			<g id="XMLID_1856_">
				<path style="fill:#3B455A;" d="M454.731,191.488c-0.428,2.029-0.856,4.057-1.284,6.086c-0.229,1.083-0.458,2.192-0.317,3.29
					c0.101,0.779,0.374,1.475,0.763,2.106c0.599,0.337,1.213,0.624,1.844,0.834C455.884,201.498,454.711,195.827,454.731,191.488z"
					/>
			</g>
			<g id="XMLID_1855_">
				<path style="fill:#3B455A;" d="M488.138,186.295c-0.57-1.799-1.818-3.31-3.214-4.579c-5.244-4.771-12.795-6.564-19.82-5.609
					c-2.753,0.374-5.678,1.293-7.252,3.582c-0.897,1.305-1.243,2.899-1.57,4.448c-0.193,0.914-0.386,1.829-0.579,2.743
					c0.083-0.114,0.17-0.221,0.266-0.315c4.388-4.35,13.875-2.426,19.071-1.124c4.632,1.161,8.78,4.198,13.215,5.856
					C488.574,189.611,488.651,187.915,488.138,186.295z"/>
			</g>
			<g id="XMLID_1854_">
				<polygon style="fill:#F4C9C3;" points="404.182,158.684 406.9,153.042 405.997,151.859 404.495,152.912 405.41,147.583 
					403.224,143.778 397.412,143.201 392.311,146.423 392.35,152.253 395.861,158.233 396.613,160.589 404.862,160.532 				"/>
			</g>
			<g id="XMLID_1853_">
				<path style="fill:#5D66D3;" d="M565.153,324.195c-2.14-3.083-9.407-5.147-12.682-7.041c-7.316-4.231-14.348-9.06-20.54-14.86
					c-8.8-8.243-15.295-18.355-19.359-29.745c-2.052-5.749-3.531-11.691-4.753-17.67c-0.442-2.162,2.651-0.355,2.268-2.528
					l25.791-0.635l-37.571-39.276l-0.122,1.906c-0.019-0.632,0.013-1.267,0.122-1.906c-8.678,3.45-16.911,1.69-25.699,3.053
					c-0.126,0.02-0.251,0.037-0.377,0.058c-3.702,0.611-7.935,1.001-12.155,1.544c-4.722,0.607-9.427,1.406-13.348,2.931
					c-1.205,0.469-2.326,1.124-3.373,1.922l-24.691-21.514l-10.411-39.924l-3.392,0.023l-8.249,0.057l-2.962,0.02l6.965,63.934
					l25.416,35.336c-1.568,6.748-2.891,13.477-3.482,17.373c-1.477,9.728-2.843,19.476-3.907,29.26
					c-1.187,10.919-2.001,21.886-2.173,32.872c-0.019,1.22-0.2,4.639-0.284,8.735c-0.177,8.62,0.077,20.236,3.18,20.661
					c0.582,0.08,1.139-0.227,1.647-0.523c2.73-1.59,5.054-3.51,7.374-5.41c2.242-1.836,4.48-3.653,7.08-5.137
					c5.545-3.166,11.888-4.848,18.108-6.026c2.712-0.529,5.443-0.991,8.184-1.396c6.66-0.985,13.388-1.594,20.102-1.719
					c1.084-0.02,2.281-0.013,3.547,0.014c9.513,0.201,23.153,1.576,26.164,1.89c0.39,0.041,0.612,0.064,0.612,0.064
					c5.784-1.037,11.31-3.163,16.85-5.134c9.519-3.387,19.24-6.371,28.172-11.116C560.072,332.765,567.979,328.267,565.153,324.195z
					"/>
			</g>
		</g>
		<g id="XMLID_1754_">
			<g id="XMLID_1755_">
				<g id="XMLID_1759_">
					<g id="XMLID_1769_">
						<polygon style="fill:#474EBB;" points="954.226,507.898 939.806,571.953 926.549,648.167 913.142,648.167 907.66,462.729 
							951.985,463.534 						"/>
					</g>
					<g id="XMLID_1767_">
						<g id="XMLID_1768_">
							<polygon style="fill:#474EBB;" points="869.357,503.981 867.496,566.16 886.22,648.167 898.256,648.167 899.485,561.685 
								912.65,490.906 915.924,468.311 879.019,463.958 							"/>
						</g>
					</g>
					<g id="XMLID_1766_">
						<path style="fill:#3B455A;" d="M898.551,336.706l41.839,3.087l22.606,38.977c-6.648,23.686-3.961,15.392-8.004,36.801
							l11.961,58.948l-15.609,4.548l-56.722,1.009l-18.654-3.265l5.102-56.244l-2.646-75.105L898.551,336.706z"/>
					</g>
					<g id="XMLID_1765_">
						<polygon style="fill:#3B455A;" points="890.303,367.349 869.263,399.834 811.092,406.197 809.409,396.619 855.857,378.518 
							878.424,345.463 						"/>
					</g>
					<g id="XMLID_1760_">
						<g id="XMLID_1764_">
							<path style="fill:#C48366;" d="M900.768,300.625c6.346-18.449,30.702-11.535,35.723,4.892
								c3.275,10.716-5,24.622-16.104,27.699c-0.049,0.422-0.086,0.816-0.087,1.15c-0.008,1.72-0.22,3.416-0.475,5.135
								c-0.095,0.641-9.812-1.227-10.896-1.44c-0.379-0.075-0.802-0.178-1.006-0.496c-0.392-0.61,0.246-2.407,0.317-3.085
								c0.084-0.8,0.168-1.601,0.252-2.401c-5.477-2.673-8.933-8.367-9.898-14.164C897.624,312.092,898.86,306.169,900.768,300.625z
								"/>
						</g>
						<g id="XMLID_1761_">
							<g id="XMLID_1763_">
								<path style="fill:#3B455A;" d="M918.25,283.429c1.202,1.421,1.573,3.304,1.814,5.103c0.144,1.074,0.254,2.183-0.052,3.213
									c-1.22,4.107-5.345,3.574-8.651,4.676c-4.077,1.359-7.715,4.156-10.195,7.507c-3.883,5.248-2.865,12.458-1.923,18.644
									c0.332,2.18,1.086,5.441-0.721,7.225c-1.836,1.813-5.716,1.216-7.662,0.064c-1.778-1.053-3.167-2.857-5.17-3.351
									c-2.12-0.523-5.094,0.2-5.943-1.846c-0.236-0.569-0.211-1.241-0.524-1.77c-1.057-1.787-4.16-0.025-5.741-1.348
									c-0.973-0.814-0.846-2.381-0.404-3.595c0.442-1.214,1.123-2.427,0.977-3.707c-0.126-1.1-0.843-2.017-1.251-3.041
									c-0.807-2.022-0.284-4.535,1.264-6.072c2.877-2.859,7.95-1.889,11.002-4.551c1.59-1.387,2.327-3.506,3.033-5.511
									c0.706-2.005,1.531-4.113,3.214-5.379c2.08-1.565,4.871-1.06,6.949-2.946c1.221-1.108,2.092-2.605,3.439-3.547
									c1.776-1.242,5.123-2.047,7.255-2.587C912.342,279.754,915.976,280.74,918.25,283.429z"/>
							</g>
							<g id="XMLID_1762_">
								<path style="fill:#3B455A;" d="M931.378,313.955c-0.348,6.064-3.854,12.38-1.47,17.923
									c2.405,5.593,9.348,7.096,15.307,7.832c0.98,0.121,13.519,2.171,13.59,1.936c1.266-4.145,2.571-8.372,5.057-11.908
									c2.486-3.536,6.405-6.323,10.646-6.265c-1.202-0.304-1.703-1.841-1.466-3.088c0.236-1.246,0.974-2.331,1.442-3.509
									c1.15-2.897,0.514-6.428-1.565-8.684c-4.148-4.501-12.374-3.389-15.838-8.459c-2.148-3.144-1.538-7.421-2.506-11.134
									c-1.872-7.179-9.42-9.226-14.905-12.821c-5.789-3.795-11.341-6.056-18.405-5.424c-8.757,0.783-15.854,9.097-13.149,17.635
									c3.469,10.951,20.638,11.335,23.019,22.367C931.39,311.539,931.447,312.742,931.378,313.955z"/>
							</g>
						</g>
					</g>
				</g>
				<g id="XMLID_1758_">
					<polygon style="fill:#FFFFFF;" points="926.549,338.81 914.215,356.243 908.416,355.769 900.546,336.846 					"/>
				</g>
				<g id="XMLID_1757_">
					<polygon style="fill:#3B455A;" points="913.142,648.167 905.999,657.356 912.65,664.629 921.98,656.398 926.549,648.167 					
						"/>
				</g>
				<g id="XMLID_1756_">
					<polygon style="fill:#3B455A;" points="885.279,648.167 878.136,657.356 884.787,664.629 894.117,656.398 898.685,648.167 
											"/>
				</g>
			</g>
		</g>
		<g id="XMLID_1753_">
			<path style="fill:#C48366;" d="M830.93,416.54l8.028-2.804c0,0,6.191,0.501,7.585,2.171l2.435,6.471l-8.846,7.386l-7.824-3.921
				L830.93,416.54z"/>
		</g>
		<g id="XMLID_953_">
			<g id="XMLID_954_">
				<g id="XMLID_955_">
					<g id="XMLID_958_">
						<path style="fill:#EBB044;" d="M450.228,250.747v-5.627c0-9.137-7.602-16.544-16.98-16.544H256.201
							c-9.378,0-16.98,7.407-16.98,16.544v298.325h422.013V267.291c0-9.137-7.602-16.544-16.98-16.544H450.228z"/>
					</g>
					<g id="XMLID_957_">
						<rect x="257.956" y="274.586" style="fill:#FBF0DD;" width="388.489" height="271.885"/>
					</g>
					<g id="XMLID_956_">
						<path style="fill:#EBB044;" d="M444.21,308.581l-6.265,16.923H256.201c-9.378,0-16.98,7.407-16.98,16.544v210.639
							c0,9.137,7.602,16.544,16.98,16.544h388.054c9.378,0,16.98-7.407,16.98-16.544V314.195c0-9.137-7.602-16.544-16.98-16.544
							H460.182C453.026,297.651,446.638,302.022,444.21,308.581z"/>
					</g>
				</g>
			</g>
		</g>
		<g id="XMLID_947_">
			<g id="XMLID_948_">
				<g id="XMLID_949_">
					<g id="XMLID_952_">
						<path style="fill:#93D1B0;" d="M694.652,380.468v-4.786c0-7.771-6.465-14.07-14.44-14.07h-150.57
							c-7.975,0-14.441,6.299-14.441,14.07v253.712h358.903V394.538c0-7.771-6.465-14.07-14.441-14.07H694.652z"/>
					</g>
					<g id="XMLID_951_">
						<rect x="531.133" y="400.742" style="fill:#FBF0DD;" width="330.392" height="231.225"/>
					</g>
					<g id="XMLID_950_">
						<path style="fill:#7FC5A3;" d="M689.533,429.654l-5.328,14.392H529.641c-7.975,0-14.441,6.299-14.441,14.07v179.139
							c0,7.771,6.465,14.07,14.441,14.07h330.022c7.975,0,14.441-6.299,14.441-14.07V434.427c0-7.771-6.465-14.07-14.441-14.07
							H703.117C697.031,420.357,691.598,424.075,689.533,429.654z"/>
					</g>
				</g>
			</g>
		</g>
		<g id="XMLID_946_">
			<path style="fill:#F4C9C3;" d="M514.34,244.016l8.028-2.804c0,0,6.19,0.501,7.585,2.171l2.435,6.471l-8.846,7.386l-7.823-3.921
				L514.34,244.016z"/>
		</g>
		<g id="XMLID_925_">
			<g id="XMLID_928_">
				<g id="XMLID_929_">
					<g id="XMLID_933_">
						<g id="XMLID_938_">
							<g id="XMLID_942_">
								<g id="XMLID_943_">
									<g id="XMLID_945_">
										
											<rect x="268.049" y="423.502" transform="matrix(0.6019 -0.7985 0.7985 0.6019 -217.3494 437.6685)" style="fill:#D34E4E;" width="124.548" height="26.684"/>
									</g>
									<g id="XMLID_944_">
										<path style="fill:#D34E4E;" d="M268.616,519.028l-0.246-0.185c-6.721-5.067-9.114-13.232-5.344-18.238l42.693-57.593
											l25.676,18.502l-43.782,57.624C283.842,524.144,275.337,524.094,268.616,519.028z"/>
									</g>
								</g>
							</g>
							<g id="XMLID_939_">
								<g id="XMLID_941_">
									
										<ellipse transform="matrix(0.6223 -0.7828 0.7828 0.6223 -129.5828 442.2709)" style="fill:#D34E4E;" cx="393.485" cy="355.408" rx="79.731" ry="80.321"/>
								</g>
								<g id="XMLID_940_">
									
										<ellipse transform="matrix(0.6224 -0.7827 0.7827 0.6224 -129.5949 442.1982)" style="fill:#F7F7F7;" cx="393.485" cy="355.408" rx="68.589" ry="69.097"/>
								</g>
							</g>
						</g>
						<g id="XMLID_934_">
							<g id="XMLID_936_" style="opacity:0.22;">
								<g id="XMLID_937_">
									<path style="fill:#F9F9F9;" d="M400.42,306.296c21.92,1.661,40.531,17.663,44.828,39.288
										c4.286,21.572-6.944,43.631-26.786,52.963c-5.593,2.63-1.855,11.514,3.746,8.88c22.842-10.743,36.242-34.953,33.071-60.04
										c-3.125-24.724-22.505-44.524-46.677-49.668c-2.338-0.498-4.715-0.785-7.094-0.965
										C395.339,296.287,394.207,305.825,400.42,306.296L400.42,306.296z"/>
								</g>
							</g>
							<g id="XMLID_935_" style="opacity:0.31;">
								<path style="fill:#F9F9F9;" d="M407.873,411.991c-2.097,2.784-6.07,3.328-8.874,1.214s-3.377-6.084-1.28-8.868
									c2.097-2.784,6.07-3.328,8.874-1.214C409.397,405.237,409.97,409.207,407.873,411.991z"/>
							</g>
						</g>
					</g>
					<g id="XMLID_932_">
						<path style="fill:#3B455A;" d="M306.545,443.903l24.429,17.604c0.839,0.605,1.996,0.48,2.677-0.288l0.221-0.249
							c0.791-0.892,0.625-2.279-0.356-2.971l-24.628-17.388c-0.922-0.651-2.194-0.423-2.821,0.505l-0.022,0.033
							C305.439,442.046,305.661,443.266,306.545,443.903z"/>
					</g>
					<g id="XMLID_930_">
						<g id="XMLID_931_">
							<path style="fill:#3B455A;" d="M387.352,422.185c-16.497-1.566-31.987-9.005-43.478-21.011
								c-11.343-11.851-17.988-27.515-18.915-43.795c-0.948-16.645,4.663-33.226,15.051-46.114
								c10.117-12.552,24.807-21.044,40.686-23.906c16.466-2.968,33.859,0.471,48.116,9.308
								c13.733,8.513,24.23,21.955,29.184,37.294c5.172,16.013,4.083,33.554-2.721,48.822
								c-6.552,14.702-18.597,26.599-33.141,33.413C411.331,421.257,399.257,423.228,387.352,422.185
								c-2.356-0.206-2.664,3.438-0.308,3.644c16.538,1.449,32.939-2.805,46.661-11.991c13.397-8.969,23.391-22.661,28.113-38.051
								c4.897-15.961,3.898-33.403-2.557-48.853c-6.205-14.85-17.629-27.412-31.7-35.218c-14.708-8.159-32.061-10.868-48.51-7.783
								c-15.894,2.982-30.303,11.577-40.813,23.732c-10.805,12.496-16.749,28.799-17.003,45.319
								c-0.251,16.379,5.342,32.485,15.434,45.435c12.19,15.643,30.722,25.544,50.375,27.409
								C389.399,426.052,389.706,422.408,387.352,422.185z"/>
						</g>
					</g>
				</g>
			</g>
			<g id="XMLID_926_">
				<g id="XMLID_927_">
					<path style="fill:#737373;" d="M275.741,510.185l-0.182-0.132l0.194,0.117L275.741,510.185z M337.733,448.408l0.097-0.203
						L337.733,448.408z"/>
				</g>
			</g>
		</g>
		<g>
			<g id="XMLID_856_">
				<g id="XMLID_915_">
					<g id="XMLID_924_">
						<path style="fill:none;" d="M186.624,352.905c1.93,1.76,4.101,3.16,6.454,4.063c0.132,1.769,0.382,3.796,0.958,4.981
							c-2.582,0.251-5.078,0.526-7.371,0.739c-0.076-1.799-0.146-3.593-0.218-5.38C186.388,355.832,186.456,354.363,186.624,352.905
							z"/>
					</g>
					<g id="XMLID_923_">
						<polygon style="fill:#0D1929;" points="181.255,665.665 181.775,666.002 186.942,672.398 180.916,677.665 170.151,670.703 
							170.581,664.872 170.71,663.115 181.065,666.367 						"/>
					</g>
					<g id="XMLID_922_">
						<path style="fill:#3B455A;" d="M181.214,538.507l-11.081,124.426l0.577,0.181l10.355,3.253l0.19-0.702l25.753-95.283
							l-0.15-32.458C198.313,538.216,189.764,538.415,181.214,538.507z"/>
					</g>
					<g id="XMLID_921_">
						<path style="fill:#3B455A;" d="M238.129,541.125l-6.482,126.055l-10.475,0.288l0.035,1.292l-0.06,0.002L211.12,543.901
							C212.427,543.846,230.451,542.703,238.129,541.125z"/>
					</g>
					<g id="XMLID_920_">
						<polygon style="fill:#0D1929;" points="231.648,666.008 232.37,665.988 238.129,671.703 232.692,677.726 221.334,672.165 
							221.208,667.587 231.503,667.305 						"/>
					</g>
					<g id="XMLID_919_">
						<path style="fill:#F4C9C3;" d="M218.292,330.273c-0.164-2.128-0.46-4.252-0.84-6.343c-0.939-5.176-3.219-8.89-6.243-11.307
							c-0.701,2.694-2.613,4.907-4.516,6.973c-0.076,0.082-0.151,0.165-0.227,0.246c-4.941,5.345-9.957,10.694-13.808,16.871
							c-3.07,4.924-5.372,10.463-6.035,16.192c1.93,1.76,4.101,3.16,6.454,4.063c0.132,1.769,0.382,3.796,0.958,4.981
							c0.142,0.293,0.303,0.537,0.489,0.709c1.52,1.416,6.484,0.269,8.428-0.116c0.539-0.107,1.103-0.243,1.503-0.619
							c0.15-0.141,0.264-0.361,0.354-0.632c0.331-0.99,0.324-2.72,0.377-4.308c5.839-2.187,10.098-7.676,11.928-13.67
							C218.398,339.106,218.632,334.678,218.292,330.273z"/>
					</g>
					<g id="XMLID_918_">
						<path style="fill:#474EBB;" d="M270.119,532.83c-10.304-13.444-9.778-36.162-12.154-52.169
							c-2.447-16.48-4.907-33.002-8.974-49.15c-0.391-1.552-0.791-3.103-1.214-4.648c-0.943-3.451-1.977-6.877-3.081-10.28
							c-2.551-7.865-5.519-15.596-8.902-23.141c-3.69-8.229-8.195-21.749-14.874-27.979c-0.222-0.207-0.453-0.404-0.694-0.593
							c-3.604-2.82-9.282-3.614-15.416-3.581c-0.091,0.271-0.204,0.491-0.354,0.632c-0.4,0.376-0.964,0.512-1.503,0.619
							c-1.943,0.386-6.908,1.532-8.428,0.116c-0.185-0.173-0.346-0.417-0.489-0.709c-2.582,0.251-5.078,0.526-7.371,0.739
							c0.529,12.503,1.35,25.229,4.904,37.349c0.087,0.298,0.167,0.598,0.258,0.895c4.563,14.943,8.273,30.205,12.4,45.275
							c0.364,1.33,0.728,2.668,1.073,4.012c1.418,5.532,2.495,11.175,1.775,16.801c-0.174,1.363-0.483,2.727-0.914,4.054
							c-1.024,3.153-2.749,6.095-5.075,8.304c-1.27,1.207-2.719,2.193-4.328,2.878c-0.571,0.243-1.162,0.449-1.773,0.612
							c-2.576-3.95-8.939-0.155-10.501,4.295s-1.86,10.071-5.952,12.414c-3.231,1.849-7.362,1.022-11.449,0.473
							c-2.537-0.341-5.057-0.575-7.335,0.006c-2.138,0.545-4.17,1.784-6.097,2.435c-3.84,11.17-10.243,20.386-20.161,29.378
							c-2.097,1.901-4.505,4.361-3.79,7.1c0.431,1.652,1.908,2.793,3.341,3.719c14.16,9.151,32.054,9.653,48.912,9.474
							c0.063-0.001,0.125-0.002,0.188-0.003c8.55-0.092,17.098-0.292,25.644-0.583c2.879-0.098,5.757-0.209,8.634-0.33
							c1.307-0.055,2.614-0.102,3.921-0.161c7.519-0.342,15.41-1.037,23.089-2.614c9.336-1.918,18.358-5.142,26.011-10.647
							c0.881-0.634,1.817-1.445,1.855-2.53C271.329,534.364,270.685,533.568,270.119,532.83z"/>
					</g>
					<g id="XMLID_917_">
						<polygon style="fill:#F4C9C3;" points="307.732,412.165 312.412,408.547 313.682,409.149 313.004,410.743 317.748,408.852 
							321.693,410.126 323.366,415.382 321.39,420.728 315.995,421.835 309.781,419.765 306.157,419.402 307.142,412.08 						"/>
					</g>
					<g id="XMLID_916_">
						<polygon style="fill:#474EBB;" points="307.608,421.44 307.277,409.389 253.798,396.117 220.226,364.871 218.129,398.31 
							246.594,417.196 						"/>
					</g>
				</g>
				<g id="XMLID_857_">
					<g id="XMLID_859_">
						<polygon style="fill:#F4C9C3;" points="293.806,439.382 298.583,435.894 299.837,436.531 299.115,438.106 303.909,436.346 
							307.818,437.728 309.345,443.028 307.224,448.317 301.8,449.276 295.646,447.036 292.033,446.574 293.219,439.281 						"/>
					</g>
					<g id="XMLID_858_">
						<polygon style="fill:#545FC6;" points="293.803,448.654 293.472,436.602 239.993,423.331 186.666,362.688 165.35,392.838 
							232.789,444.41 						"/>
					</g>
				</g>
			</g>
			<g id="XMLID_855_">
				<path style="fill:#3B455A;" d="M220.956,318.249c-0.742-5.793-4.436-11.13-9.597-13.866c-0.445,0.232-0.879,0.486-1.305,0.751
					c-0.42-0.768-0.916-1.496-1.471-2.164c-3.295-3.961-7.227-5.949-12.248-6.108c-17.624-0.556-30.956,9.77-36.089,26.945
					c-4.34,14.521-2.469,30.05-1.64,45.183c1.247,22.756-3.62,49.012-17.102,67.656c-5.494,7.597-11.491,15.216-13.772,24.31
					c-2.281,9.094,0.364,20.231,8.661,24.596c3.242,1.706,7.102,2.282,9.918,4.626c2.958,2.462,3.151,6.652,0.444,9.238
					c2.132,3.779,4.429,3.907,6.896,3.073c1.927-0.651,3.959-1.89,6.097-2.435c2.277-0.581,4.798-0.347,7.335-0.006
					c4.087,0.549,8.218,1.376,11.449-0.473c4.093-2.342,4.39-7.964,5.952-12.414s7.925-8.244,10.501-4.295
					c0.611-0.163,1.202-0.369,1.773-0.612c1.61-0.684,3.058-1.671,4.328-2.878c2.325-2.209,4.05-5.152,5.075-8.304
					c0.431-1.327,0.739-2.691,0.914-4.054c0.72-5.627-0.357-11.269-1.775-16.801c-0.345-1.345-0.709-2.683-1.073-4.012
					c-4.127-15.07-7.837-30.332-12.4-45.275c-0.091-0.297-0.17-0.597-0.258-0.895c-3.555-12.12-4.376-24.846-4.904-37.349
					c-0.076-1.799-0.146-3.593-0.218-5.38c-0.059-1.475,0.008-2.944,0.177-4.402c0.662-5.728,2.965-11.268,6.035-16.192
					c3.851-6.177,8.867-11.526,13.808-16.871c0.076-0.082,0.151-0.164,0.227-0.246c1.903-2.066,3.815-4.28,4.516-6.973
					c3.023,2.417,5.304,6.131,6.243,11.307c0.38,2.091,0.676,4.215,0.84,6.343C220.486,326.71,221.489,322.404,220.956,318.249z"/>
			</g>
		</g>
		<g id="XMLID_852_">
			<g id="XMLID_854_">
				<polygon style="fill:#F4C9C3;" points="651.47,331.6 639.885,332.303 639.369,327.365 647.195,325.127 645.868,322.904 
					655.855,323.51 657.084,328.572 				"/>
			</g>
			<g id="XMLID_853_">
				<polygon style="fill:#545FC6;" points="717.267,263.273 702.093,306.043 652.542,322.172 655.495,332.089 718.217,326.013 
					753.289,270.329 735.099,247.267 				"/>
			</g>
		</g>
		<g id="XMLID_849_">
			<g id="XMLID_851_">
				<polygon style="fill:#C48366;" points="841.412,440.992 829.729,442.281 829.231,446.317 821.893,451.33 825.008,456.039 
					840.153,451.2 				"/>
			</g>
			<g id="XMLID_850_">
				<polygon style="fill:#465268;" points="962.996,378.77 920.697,423.293 901.547,430.526 839.24,452.855 840.421,438.583 
					903.025,405.356 939.018,339.808 955.537,348.892 				"/>
			</g>
		</g>
	</g>
</g>
</svg>
